<?xml version="1.0" encoding="utf-8"?>
<!-- Generator: Adobe Illustrator 28.1.0, SVG Export Plug-In . SVG Version: 6.00 Build 0)  -->
<svg version="1.1" id="Layer_1" xmlns="http://www.w3.org/2000/svg" xmlns:xlink="http://www.w3.org/1999/xlink" x="0px" y="0px"
	 viewBox="0 0 36.2 36" style="enable-background:new 0 0 36.2 36;" xml:space="preserve">
<image style="display:none;overflow:visible;" width="669" height="727" xlink:href="../../../Imágenes/Capturas de pantalla/Screenshot 2024-05-09 103338.png"  transform="matrix(0.75 0 0 0.75 -585.4518 -33.7619)">
</image>
<path d="M18.1,0C8.1,0,0,8.1,0,18.1c0,9,6.6,16.5,15.3,17.9V23.4h-4.7v-5.3h4.7v-4.4c0,0-0.1-3.6,2.7-5.5c2.9-2,8.3-0.7,8.3-0.7
	L26,12c0,0-2.8-0.2-3.6,0.1c-1.7,0.8-1.5,2.3-1.5,2.3v3.7h5l-0.8,5.3h-4.2V36c8.7-1.3,15.3-8.8,15.3-17.9C36.2,8.1,28.1,0,18.1,0z"
	/>
</svg>
