<?xml version="1.0" encoding="utf-8"?>
<!-- Generator: Adobe Illustrator 28.1.0, SVG Export Plug-In . SVG Version: 6.00 Build 0)  -->
<svg version="1.1" id="logo" xmlns="http://www.w3.org/2000/svg" xmlns:xlink="http://www.w3.org/1999/xlink" x="0px" y="0px"
	 viewBox="0 0 531.2 490.5" style="enable-background:new 0 0 531.2 490.5;" xml:space="preserve">
<style type="text/css">
	.st0{fill:#FFFFFF;}
</style>
<g>
	<path class="st0" d="M461.7,355.6l40.7-224.8c2.3-23.8-4.5-44.7-20.2-62.1c-19-21-50.4-35.3-84.8-39.3c7.8,5.8,14.9,12.3,21.1,19.5
		c21.4,24.8,30.7,55,26.3,85.1l-0.1,0.5L412,312.8c-4.6,37.6-20.9,64.5-48.4,79.6l0,0c-1.1,0.6-2.3,1.2-3.4,1.8
		c-0.2,0.1-0.5,0.2-0.7,0.4c-1.1,0.5-2.2,1.1-3.4,1.6c-0.2,0.1-0.4,0.2-0.6,0.3c-1.1,0.5-2.1,0.9-3.2,1.4c-0.1,0.1-0.3,0.1-0.4,0.2
		c-1.1,0.5-2.3,0.9-3.5,1.3c-0.2,0.1-0.5,0.2-0.8,0.3c-1.2,0.4-2.3,0.8-3.5,1.2c-0.1,0-0.3,0.1-0.4,0.1c-1.1,0.3-2.2,0.7-3.3,1
		c-0.2,0.1-0.4,0.1-0.6,0.2c-1.2,0.3-2.3,0.6-3.5,0.9c-0.2,0.1-0.5,0.1-0.7,0.2c-1.2,0.3-2.4,0.6-3.6,0.8l0,0
		c-1.2,0.3-2.4,0.5-3.6,0.7c-0.2,0-0.5,0.1-0.7,0.1c-1.2,0.2-2.4,0.4-3.5,0.6c-0.2,0-0.4,0.1-0.6,0.1c-1.1,0.2-2.2,0.3-3.3,0.5
		c-0.1,0-0.3,0-0.4,0.1c-1.2,0.2-2.4,0.3-3.5,0.4c-0.2,0-0.5,0.1-0.7,0.1c-1.2,0.1-2.3,0.2-3.5,0.4c-0.1,0-0.2,0-0.3,0
		c-1.1,0.1-2.2,0.2-3.3,0.3c-0.2,0-0.4,0-0.6,0c-1.1,0.1-2.3,0.1-3.4,0.2c-0.2,0-0.4,0-0.7,0c-1.1,0.1-2.2,0.1-3.4,0.2l0,0
		c-11.2,14.6-24.4,28-26.4,30l-6.8,6.8l-9.6-0.2l-46.8-0.8l-42.7-0.7l24.5-35l2.7-3.9c-0.7-0.3-1.4-0.5-2-0.8
		c-0.1,0-0.1-0.1-0.2-0.1c-0.6-0.3-1.2-0.6-1.8-0.9c-0.1-0.1-0.2-0.1-0.4-0.2c-0.5-0.3-1.1-0.6-1.6-0.9c-0.2-0.1-0.3-0.2-0.5-0.3
		c-0.5-0.3-0.9-0.6-1.4-0.9c-0.2-0.1-0.4-0.3-0.6-0.4c-0.4-0.3-0.8-0.5-1.2-0.8c-0.2-0.2-0.5-0.4-0.8-0.6c-0.3-0.3-0.7-0.5-1-0.8
		s-0.6-0.5-0.9-0.8c-0.2-0.2-0.5-0.4-0.7-0.6c-0.5-0.5-1-1-1.5-1.5l0,0c-11.8-12.6-9.7-29.4-9-34.9c2.5-20.8,16.4-79,17-81.5
		l2.6-10.9h152.2l-22.1,110.1c31.6-5.5,57.1-22,62.6-68.1l0.1-0.9l32.7-178.4c4-27.8-8.5-49.2-19.7-62.2
		c-20.9-24.2-54.2-39.2-87.1-39.2H185.8c-61.2,0-100.3,35.8-116.3,106.5L28.8,359.7c-2.3,23.8,4.5,44.7,20.2,62
		c19,21,50.4,35.3,84.8,39.3c-7.8-5.8-14.8-12.3-21.1-19.5c-21.4-24.8-30.7-55-26.3-85.1l0.1-0.5l32.6-178.3
		c4.6-37.7,20.9-64.4,48.4-79.7c24.8-13.7,54-15.4,76.7-15.4l0,0l60.3,0.1c2.7-0.1,5.3-0.2,7.8-0.1c17.4,0.3,30,4.8,38.2,13.7
		c11.8,12.6,9.7,29.4,9,34.9c-2.5,20.8-16.4,79-17,81.5l-2.6,10.9h-152L210,113.4c-31.6,5.5-57.1,22-62.6,68.1l-0.1,0.9l-32.7,178.4
		c-4,27.8,8.5,49.1,19.7,62.2c20.9,24.2,54.2,39.2,87.1,39.2h124.1C406.6,462.1,445.7,426.3,461.7,355.6L461.7,355.6z"/>
	<path class="st0" d="M308.8,295.4h-95.2c-4.2,18-12.1,53.3-13.9,67.5c-0.8,6.2-0.2,10.1,1.6,12.1c0.1,0.1,0.2,0.2,0.3,0.3l0,0l0,0
		l0,0l0,0l0,0c0.1,0.1,0.3,0.2,0.4,0.4l0,0l0,0c0.1,0.1,0.3,0.2,0.4,0.3c0.1,0,0.1,0.1,0.2,0.1l0,0l0,0c0.2,0.1,0.4,0.3,0.6,0.4
		c0.1,0,0.1,0.1,0.2,0.1l0,0l0,0h0.1c0.2,0.1,0.4,0.2,0.6,0.3l0,0l0,0c0,0,0,0,0.1,0l0,0l0,0c0.2,0.1,0.3,0.1,0.5,0.2
		c0.1,0,0.2,0.1,0.4,0.2h0.1l0,0l0,0h0.1c0.1,0.1,0.3,0.1,0.4,0.2l0,0l0,0c0.1,0,0.2,0.1,0.3,0.1l0,0l0,0c0.1,0,0.2,0.1,0.3,0.1l0,0
		l0,0c0.1,0,0.1,0,0.2,0.1c0.1,0,0.3,0.1,0.4,0.1l0,0l0,0h0.1c0.2,0.1,0.4,0.1,0.6,0.2l0,0l0,0c0.1,0,0.3,0.1,0.4,0.1l0,0l0,0
		c0.2,0,0.4,0.1,0.6,0.1c0.1,0,0.1,0,0.2,0l0,0l0,0c0.1,0,0.2,0.1,0.4,0.1c0.1,0,0.3,0.1,0.4,0.1l0,0l0,0c0.5,0.1,1.1,0.2,1.7,0.3
		c0.1,0,0.1,0,0.1,0l0,0l0,0c0.5,0.1,1.1,0.1,1.6,0.2c0.1,0,0.3,0,0.4,0l0,0l0,0c0.2,0,0.4,0,0.6,0.1c0.2,0,0.4,0,0.6,0l0,0l0,0
		c0.6,0,1.1,0.1,1.7,0.1l0,0l0,0c0.1,0,0.2,0,0.4,0c0.4,0,0.8,0,1.1,0c0.2,0,0.4,0,0.6,0l0,0l0,0c0.2,0,0.5,0,0.7,0s0.4,0,0.6,0h0.1
		h0.1c0.2,0,0.3,0,0.5,0l0,0l0,0c0.3,0,0.6,0,0.9,0c0.5,0,1.1,0,1.6,0l0,0l0,0c0.3,0,0.6,0,0.9,0c0.4,0,0.9,0,1.3,0h0.4h0.4
		l12.3,0.8l-6,10l-12.1,18l0,0l-9.1,12.9l46.8,0.8c0,0,0,0,0.1-0.1c0.6-0.6,5.5-5.5,11.4-12.2l0,0c0.4-0.5,0.8-0.9,1.2-1.4l0,0l0,0
		c7.5-8.5,16.5-19.5,21.2-28.4L308.8,295.4L308.8,295.4L308.8,295.4z M259.2,407.9L259.2,407.9c-1.4,1.6-2.7,2.9-3.8,4.1l-0.1,0.1
		c-0.3,0.4-0.7,0.7-1,1l-27.1-0.5l3.4-4.8l0,0l8.9-12.7l0.2-0.2l0.2-0.3l6-10l3.1-5.1l0,0l4.1-6.8l-13.9-0.9l-12.3-0.8h-0.3h-0.3
		h-0.4h-0.2h-0.2h-0.4c-1.5,0.1-3,0.1-4.3,0.1c-7.8,0-11.5-1.2-12.8-1.9c-0.1-0.8-0.2-2.4,0.2-5.4c1.5-12.3,8.2-42.4,12.2-60h78.1
		l-14.6,72.7c-0.3,0.5-0.5,1-0.8,1.4c0,0,0,0.1-0.1,0.1c-0.3,0.5-0.6,1-0.9,1.4l0,0C276,389.1,266,400.5,259.2,407.9L259.2,407.9z"
		/>
	<path class="st0" d="M244.3,110.9c-1.7,0-3.4,0-5,0L222.4,195h95.2c4.2-18,12.1-53.3,13.9-67.5c0.8-6.2,0.2-10.1-1.6-12.1l0,0
		c-0.1-0.1-0.1-0.1-0.2-0.2l0,0l0,0l0,0c-0.1-0.1-0.2-0.2-0.3-0.2l0,0l0,0c0,0,0,0-0.1-0.1l0,0l0,0c-0.1-0.1-0.2-0.2-0.4-0.3l0,0
		c-0.1-0.1-0.2-0.1-0.2-0.2c-0.1-0.1-0.2-0.1-0.3-0.2l0,0l0,0c0,0,0,0-0.1,0l0,0l0,0c-0.2-0.1-0.4-0.2-0.6-0.3l0,0l0,0l0,0l0,0l0,0
		c-0.2-0.1-0.5-0.2-0.7-0.3l0,0l0,0c-0.3-0.2-0.6-0.3-1-0.4l0,0l0,0c-0.1-0.1-0.2-0.1-0.4-0.1c-0.5-0.2-1-0.4-1.6-0.5h-0.1l0,0h-0.1
		l0,0l0,0c-0.2-0.1-0.5-0.1-0.7-0.2c-0.3-0.1-0.7-0.2-1-0.2c-0.3-0.1-0.6-0.1-0.9-0.2l0,0c-1.3-0.2-2.7-0.4-4.3-0.6
		c-0.4,0-0.9-0.1-1.3-0.1l0,0l0,0c-0.3,0-0.6,0-0.8-0.1c-0.5,0-1-0.1-1.5-0.1l0,0c-0.8,0-1.6,0-2.5,0l0,0l0,0c-0.2,0-0.5,0-0.7,0
		c-1.3,0-2.6,0-4,0.1h-0.4H305L244.3,110.9L244.3,110.9z M305.5,119.5h0.2h0.4c1.5-0.1,3-0.1,4.3-0.1c7.8,0,11.5,1.2,12.8,1.9
		c0.1,0.8,0.2,2.4-0.2,5.4c-1.5,12.3-8.2,42.4-12.2,60h-78.1l13.5-67.2l58.6,0.1h0.4L305.5,119.5L305.5,119.5z"/>
</g>
</svg>
