<?xml version="1.0" encoding="UTF-8"?>
<svg id="Layer_1" data-name="Layer 1" xmlns="http://www.w3.org/2000/svg" viewBox="0 0 151.27 116.81">
  <defs>
    <style>
      .cls-1 {
        stroke-width: 0px;
      }
    </style>
  </defs>
  <path class="cls-1" d="M151.27,106.64c0-24.74,0-49.48,0-74.22,0-.68-.07-1.36-.12-2.33,0,0,0,0,0,0v-.14c-.66.23-1.25.38-1.79.54-.34.09-.66.18-.96.33-1.61.77-3.2,1.64-4.74,2.59-3.47,2.13-6.94,4.25-10.42,6.38-5.16,3.07-10.31,6.17-15.44,9.31-11.04,6.76-22.01,13.67-33.01,20.49-2.97,1.43-5.97,2.36-9.14,2.54-3.17-.18-6.18-1.1-9.14-2.54-11.01-6.82-21.98-13.73-33.01-20.49-5.13-3.14-10.28-6.23-15.44-9.31-3.47-2.12-6.95-4.24-10.42-6.38-1.54-.95-3.13-1.82-4.74-2.59-.3-.15-.63-.24-.96-.33-.54-.16-1.13-.32-1.79-.54v.14s0,0,0,0c-.05.97-.12,1.65-.12,2.33C0,57.16,0,81.9,0,106.64c0,3.49,2.6,7.73,5.47,8.73,1.07.61,2.25.96,3.62.92,1.34-.04,2.68.05,4.02.13.98.07,1.97.12,2.95.13,2.54.02,5.08.02,7.62.04,13.18.11,26.35.23,39.53.22,4.14,0,8.29-.02,12.43-.03,4.14,0,8.29.02,12.43.03,13.18,0,26.35-.12,39.53-.22,2.54-.02,5.08-.02,7.62-.04.98,0,1.96-.06,2.95-.13,1.34-.08,2.68-.16,4.02-.13,1.36.04,2.54-.31,3.62-.92,2.87-1,5.47-5.24,5.47-8.73Z"/>
  <path class="cls-1" d="M.51,7.18c.27.84.61,1.72,1.07,2.31,1.26,1.62,2.5,3.34,3.93,4.6,2.93,2.57,5.95,4.94,8.98,7.27,17.65,13.57,35.31,27.13,53,40.62.52.4,1.06.77,1.61,1.11,1.58,1.09,3.19,1.81,4.85,2.11,0,0,.02,0,.02,0,.36.06.73.11,1.1.13.19.01.38.02.56.02.19,0,.37,0,.56-.02.37-.02.73-.07,1.1-.13,0,0,.02,0,.02,0,1.65-.3,3.27-1.02,4.85-2.11.55-.35,1.09-.72,1.61-1.11,17.68-13.49,35.34-27.05,53-40.62,3.03-2.33,6.05-4.69,8.98-7.27,1.43-1.25,2.67-2.97,3.93-4.6.47-.6.81-1.48,1.07-2.31.46-1.46.59-2.67.42-3.62-.11-1.89-1.11-3.06-2.79-3.35-.89-.15-1.78-.2-2.68-.2C122.62,0,99.51,0,76.41,0v.03c-.26,0-.51,0-.77,0-.26,0-.51,0-.77,0,0-.01,0-.02,0-.03C51.76,0,28.65,0,5.55,0c-.89,0-1.79.05-2.68.2C1.19.5.19,1.66.09,3.55c-.17.95-.04,2.16.42,3.62Z"/>
</svg>