<?xml version="1.0" encoding="UTF-8"?>
<svg id="Layer_1" data-name="Layer 1" xmlns="http://www.w3.org/2000/svg" viewBox="0 0 210.29 210.29">
  <defs>
    <style>
      .cls-1 {
        stroke-width: 0px;
      }
    </style>
  </defs>
  <path class="cls-1" d="M0,187.18c0-54.69,0-109.39,0-164.08.04-.23.09-.46.12-.7.12-1.13.16-2.29.38-3.4C1.72,12.86,4.88,7.95,9.98,4.32,13.64,1.72,17.75.32,22.25.12c.32-.01.64-.08.96-.12,54.62,0,109.25,0,163.87,0,.23.04.47.09.7.11.95.09,1.91.1,2.85.26,5.37.91,9.93,3.36,13.58,7.41,3.35,3.71,5.3,8.07,5.84,13.05.07.66.15,1.31.23,1.97v164.7c-.05.27-.1.53-.13.8-.12,1-.16,2.01-.36,2.99-1.23,6.14-4.39,11.05-9.48,14.69-3.23,2.3-6.84,3.67-10.79,4.08-.78.08-1.56.16-2.33.24H23.1c-.34-.04-.67-.11-1.01-.13-2.43-.09-4.8-.54-7.02-1.49-9.23-3.91-14.28-10.85-14.96-20.89-.01-.2-.07-.4-.11-.6ZM113.8,92.99v-.56c0-3.97,0-7.94,0-11.91q0-.77-.76-.77c-9.58,0-19.17,0-28.75,0q-.75,0-.75.77c0,33.28,0,66.57,0,99.85q0,.8.77.8c9.57,0,19.13,0,28.7,0q.78,0,.78-.8c0-.17,0-.34,0-.51,0-17.1,0-34.19,0-51.29,0-1.64.08-3.28.21-4.91.23-2.83.88-5.56,2.03-8.16,1.86-4.19,4.81-7.28,9.15-8.91,3.6-1.35,7.31-1.62,11.09-1.01,4.78.77,8.32,3.31,10.57,7.6,2.07,3.93,2.86,8.21,2.88,12.57.08,18.21.04,36.41.05,54.62q0,.79.78.79c9.89,0,19.78,0,29.67,0,1.02,0,.93.09.93-.95,0-20.88,0-41.75,0-62.63,0-3.35-.2-6.69-.71-10.01-.63-4.14-1.73-8.14-3.52-11.94-2.99-6.36-7.5-11.31-13.73-14.63-5.46-2.92-11.36-4.11-17.49-4.33-2.98-.1-5.94.11-8.87.69-8.18,1.62-14.9,5.69-20.3,12-.97,1.14-1.82,2.38-2.76,3.62ZM32.13,130.4c0,16.63,0,33.27,0,49.9q0,.86.87.86c9.96,0,19.92,0,29.88,0q.79,0,.8-.78c0-33.28,0-66.57,0-99.85q0-.78-.8-.78c-9.94,0-19.88,0-29.83,0q-.92,0-.93.91c0,16.58,0,33.16,0,49.75ZM66.37,47.89c-.05-10.38-8.26-18.74-18.58-18.76-10.31-.02-18.64,8.3-18.66,18.72-.02,10.35,8.18,18.77,18.6,18.78,10.47.01,18.59-8.46,18.64-18.75Z"/>
</svg>