<?xml version="1.0" encoding="UTF-8"?>
<svg id="Layer_1" data-name="Layer 1" xmlns="http://www.w3.org/2000/svg" viewBox="0 0 632.72 617.14">
  <defs>
    <style>
      .cls-1 {
        stroke-width: 0px;
      }
    </style>
  </defs>
  <path class="cls-1" d="M0,296.1c1.59-11.56,2.96-23.16,4.81-34.67,7.28-45.22,24.61-86.44,50.48-124.08,39.13-56.95,91.6-96.82,156.54-119.98C255.9,1.66,301.48-2.78,348.05,1.59c58,5.44,110.2,25.92,156.78,60.57,56.68,42.16,95,97.41,115.19,165.05,12.96,43.42,15.75,87.82,9.51,132.61-12.31,88.36-56.18,158.24-126.46,211.98-25.49,19.49-54.19,33.43-84.55,43.81-13.93,4.76-23.37-1.92-23.43-16.61-.11-27.38.03-54.77-.07-82.15-.05-13.64-.81-27.31-6.75-39.84-3.47-7.32-8.31-14-12.57-21.02,11.53-2.15,24.08-3.75,36.24-6.89,32.22-8.31,61.08-22.6,80.63-50.88,14.23-20.57,20.81-44.15,23.71-68.72,2.2-18.63,2.84-37.33-.74-55.94-3.98-20.68-12.91-38.95-26.74-54.76-2.5-2.86-2.93-5.22-1.7-8.74,9.09-26.02,5.58-51.48-4.06-76.51-.59-1.54-3.2-2.99-5.04-3.25-10.99-1.55-21.4,1.55-31.04,6.09-15.96,7.52-31.37,16.17-47.18,24.02-2.82,1.4-6.72,2.28-9.65,1.55-49.31-12.32-98.52-12.34-147.82.05-2.92.73-7.03-.08-9.6-1.72-20.09-12.78-41.28-22.98-64.36-29.06-.4-.1-.78-.26-1.19-.34-14.76-3.12-17.38-1.45-21.62,13.04-6.57,22.47-7.75,44.86.12,67.33.63,1.81.05,4.96-1.21,6.4-26.54,30.17-32.55,65.87-28.93,104.42,2.12,22.56,7.45,44.14,17.57,64.46,14.25,28.62,38.35,46.09,67.52,56.18,17.33,6,35.87,8.51,53.88,12.57.95.21,1.92.32,2.08.35-4.61,8.37-9.35,16.64-13.7,25.11-1.47,2.87-2.58,6.23-2.71,9.41-.27,6.67-3.76,9.68-9.81,11.32-20.03,5.42-39.9,8.92-59.05-2.83-10.06-6.17-17.55-14.81-23.47-24.9-9.11-15.51-21.89-26.88-39.18-32-6.4-1.89-13.7-1.38-20.53-.98-4.17.24-5.52,3.64-2.7,7.15,2.8,3.49,5.59,7.51,9.32,9.67,16.97,9.84,26.5,25.43,34.12,42.57,4.35,9.79,8.45,19.57,16.72,27.01,13.28,11.93,29.32,16.44,46.49,17.22,14.89.67,29.84.14,45.73.14,0,8.95-.04,19.4.01,29.85.04,8.03.3,16.06.28,24.09-.04,14.81-9.79,21.97-23.8,17.2-46.74-15.92-87.88-41.02-122.37-76.44-33.44-34.34-58.99-73.78-74.75-119.29-8.94-25.81-14.12-52.35-16.19-79.55-.18-2.42-.64-4.82-.97-7.23,0-12.36,0-24.71,0-37.07Z"/>
  <g>
    <path class="cls-1" d="M241.01,510.22c-1.47-3.88-4.3-5.33-7.93-3.96-3.4,1.28-4.6,4.14-3.21,7.83,1.35,3.55,4.27,5.34,7.85,3.99,3.51-1.39,4.58-4.44,3.29-7.86Z"/>
    <path class="cls-1" d="M211.35,511.51c-3.62.28-5.58,2.69-5.28,6.62.3,3.79,2.61,6.32,6.42,6.02,3.76-.35,5.65-2.98,5.36-6.63-.32-4.13-2.64-6.32-6.51-6.02Z"/>
    <path class="cls-1" d="M189.03,510.36c-3.55-.78-6.12.96-6.96,4.81-.81,3.71.67,6.81,4.41,7.62,3.7.75,6.27-1.22,7.05-4.79.88-4.05-.7-6.81-4.49-7.64Z"/>
    <path class="cls-1" d="M167.85,502.95c-3.24-1.64-6.17-.6-7.95,2.92-1.71,3.39-1.05,6.76,2.36,8.48,3.39,1.65,6.37.38,8.02-2.88,1.87-3.7,1.02-6.77-2.44-8.52Z"/>
    <path class="cls-1" d="M140.89,490.86c-2.71,2.67-3.16,6.06-.47,8.79,2.69,2.64,5.92,2.39,8.52-.17,2.95-2.91,3.13-6.09.41-8.85-2.55-2.59-5.65-2.53-8.46.23Z"/>
    <path class="cls-1" d="M137.54,472.05c-1.4-3.35-4.3-4.46-7.94-2.93-3.5,1.47-5.19,4.46-3.71,7.98,1.51,3.46,4.6,4.43,7.98,3.01,3.82-1.6,5.17-4.49,3.67-8.06Z"/>
    <path class="cls-1" d="M121.09,451.7c-2.94-2.13-5.99-1.57-8.31,1.62-2.23,3.07-2.12,6.5.98,8.74,3.09,2.17,6.23,1.39,8.38-1.57,2.43-3.35,2.09-6.52-1.05-8.8Z"/>
  </g>
</svg>