<?xml version="1.0" encoding="UTF-8"?>
<svg id="Layer_1" data-name="Layer 1" xmlns="http://www.w3.org/2000/svg" viewBox="0 0 141.37 141.37">
  <defs>
    <style>
      .cls-1 {
        stroke-width: 0px;
      }
    </style>
  </defs>
  <path class="cls-1" d="M65.04,29.73c-28.64,4.82-42.9,37.34-27.12,61.72.59.91.77,2.46.46,3.52-1.2,4.14-2.66,8.2-4.19,12.76,4.71-1.48,8.93-2.93,13.23-4.09,1.14-.31,2.72-.11,3.76.47,8.46,4.73,17.44,6.58,26.99,4.98,21.54-3.62,36.12-23.49,33.31-45.22-2.84-22.02-24.38-37.85-46.44-34.14ZM96.23,83.09c-.76,5.49-5.6,9.26-12.98,9.08-6.48-1.1-13.53-3.87-19.55-8.9-6.06-5.06-11.12-11.01-14.38-18.24-2.29-5.09-2.01-10.15,1.48-14.81,1.72-2.29,4-3.33,6.73-2.86,1.07.18,2.4,1.08,2.89,2.03,1.44,2.83,2.51,5.84,3.73,8.78.77,1.85-.14,3.19-1.31,4.49-2.85,3.17-2.8,3.17-.32,6.68,3.45,4.89,7.9,8.51,13.37,10.96,1.87.84,3.13.49,4.3-1.09,3.75-5.08,2.82-5.41,9.69-2.17,1.44.68,2.82,1.5,4.29,2.08,1.94.75,2.33,2.13,2.07,3.99Z"/>
  <path class="cls-1" d="M141.21,14c-.36-3.35-1.68-6.27-3.93-8.77-2.46-2.72-5.52-4.37-9.13-4.98-.63-.11-1.28-.11-1.92-.17-.16-.01-.31-.05-.47-.08H15.6c-.21.03-.43.07-.64.08-3.03.13-5.78,1.07-8.25,2.82C3.28,5.34,1.15,8.65.33,12.78c-.15.75-.17,1.52-.25,2.29-.02.16-.05.31-.08.47v110.3c.03.13.07.27.08.4.46,6.75,3.86,11.42,10.06,14.05,1.49.63,3.09.94,4.72,1,.23,0,.45.06.68.08h110.3c.52-.05,1.05-.1,1.57-.16,2.66-.28,5.08-1.2,7.26-2.75,3.43-2.44,5.55-5.75,6.38-9.87.13-.66.16-1.34.24-2.01.02-.18.06-.36.09-.54V15.32c-.05-.44-.11-.88-.15-1.32ZM82.91,116.38c-11.33,2.68-22.26,1.42-32.79-3.61-1.14-.54-2.8-.6-4.03-.23-7.33,2.21-14.6,4.62-21.89,6.95-.7.22-1.43.38-2.8.73,1.68-5.01,3.17-9.44,4.66-13.88,1.13-3.37,2.37-6.72,3.32-10.14.3-1.09.2-2.58-.31-3.58-3.12-6.09-5.11-12.45-5.65-19.29-1.05-13.4,2.9-25.19,11.53-35.36,7.33-8.64,16.7-14.03,27.85-16.02,27.47-4.9,51.49,13.4,56.3,38.56,4.79,25.03-11.15,49.96-36.21,55.87Z"/>
</svg>