<?xml version="1.0" encoding="UTF-8"?>
<svg id="Layer_3" data-name="Layer 3" xmlns="http://www.w3.org/2000/svg" viewBox="0 0 467.49 464.84">
  <defs>
    <style>
      .cls-1 {
        stroke-width: 0px;
      }
    </style>
  </defs>
  <path class="cls-1" d="M404.56,0H62.93C28.17,0,0,28.17,0,62.93v338.99c0,34.75,28.17,62.93,62.93,62.93h341.63c34.75,0,62.93-28.17,62.93-62.93V62.93c0-34.75-28.17-62.93-62.93-62.93ZM250.96,392.25c-5.78,16.96-17.04,28.66-34.09,34.14-19.96,6.41-39.94,6.08-59.36-2.31-14.98-6.47-25.4-17.81-32.56-32.29-.16-.33-.25-.69-.45-1.23,11.76-7.12,23.52-14.24,35.43-21.44,1.37,2.29,2.62,4.44,3.93,6.55,2.78,4.46,5.76,8.82,10.26,11.71,8.92,5.71,18.34,5.57,27.57,1.1,5.79-2.8,7.89-8.56,8.81-14.56.58-3.77.82-7.62.83-11.44.05-47.67.03-95.34.03-143.01v-3.49h43.59c.04.83.12,1.69.12,2.55,0,48.19,0,96.37,0,144.56,0,9.91-.89,19.7-4.12,29.17ZM423.22,399.31c-7.25,12.77-18.23,21.26-31.96,25.75-28.43,9.29-56.21,7.7-82.61-7-13.21-7.36-22.92-18.32-30.02-32.1,11.93-6.91,23.69-13.71,35.24-20.4,3.34,4.21,6.2,8.46,9.7,12.1,13.47,14.02,29.86,17.16,48.04,11.78,7.34-2.17,12.92-6.95,14.62-14.87,1.48-6.87.28-13.47-5.1-18.28-3.79-3.39-8.18-6.32-12.74-8.58-8.7-4.31-17.82-7.75-26.55-12-7.73-3.76-15.5-7.6-22.67-12.3-19.05-12.48-27.84-30.53-27.4-53.21.52-26.77,16.99-47.64,43.43-54.32,17.43-4.4,34.8-3.8,51.59,3.07,13.74,5.62,23.27,15.97,30.52,28.63.1.18.11.42.2.81-11.17,7.17-22.36,14.36-33.73,21.66-1.13-1.75-2.12-3.36-3.19-4.92-4.14-6.06-9.25-10.9-16.62-12.71-5.23-1.28-10.49-1.49-15.71.05-16.37,4.82-16.33,23.91-8.16,31.43,3.15,2.9,6.8,5.49,10.64,7.39,8.04,3.99,16.34,7.44,24.54,11.08,11.73,5.21,23.19,10.88,33.28,18.99,14.15,11.38,21.11,26.25,21.84,44.27.48,11.86-1.25,23.22-7.19,33.67Z"/>
</svg>