<?xml version="1.0" encoding="utf-8"?>
<!-- Generator: Adobe Illustrator 28.1.0, SVG Export Plug-In . SVG Version: 6.00 Build 0)  -->
<svg version="1.1" id="Layer_1" xmlns="http://www.w3.org/2000/svg" xmlns:xlink="http://www.w3.org/1999/xlink" x="0px" y="0px"
	 viewBox="0 0 31.7 36" enable-background="new 0 0 31.7 36" xml:space="preserve">
<path d="M10.3,10.6c0.1,1.3,0.2,2.7,0.4,4c0.3,0,0.6,0,0.9,0c0.3,0,0.6,0,0.9,0H14c0.3,0,0.6,0,0.9,0s0.6,0,0.9,0c0,0,0.1,0,0.1,0
	v-4c-1.8,0-3.5,0-5.3,0C10.5,10.6,10.4,10.6,10.3,10.6L10.3,10.6z"/>
<path d="M31.7,0h-0.4C21,0,0.1,0,0,0c0,0.5,2.8,31.9,2.9,32.4c0.1,0,0.1,0.1,0.2,0.1c1,0.3,2,0.6,3,0.8c3.2,0.9,9.7,2.7,9.7,2.7
	l13-3.6C28.8,32.4,31.8,0,31.7,0z M26.3,30.4l-10.5,2.8v-4.1c0,0-5.4-1.5-7.9-2.2c-0.2-0.1-0.2-0.1-0.3-0.3c-0.1-1-0.2-1.9-0.3-2.9
	c-0.1-0.9-0.2-1.8-0.2-2.7c0-0.2,0-0.3,0-0.5c0.1,0,0.1,0,0.2,0c1.2,0,2.4,0,3.6,0c0.1,0,0.1,0,0.2,0c0,0.1,0,0.3,0,0.4
	c0.1,0.9,0.2,1.7,0.2,2.6c0,0.1,0.1,0.2,0.2,0.2c0.9,0.2,4.2,1.1,4.3,1.1v-6.3c-2.9,0-5.8,0-8.7,0c-0.1,0-0.1,0-0.2,0
	c-0.4-4-0.7-8-1.1-12c0.1,0,0.2,0,0.3,0c0.5,0,0.9,0,1.4,0c2.6,0,5.1,0,7.7,0c0.2,0,0.4,0,0.6,0v-4h13.1L26.3,30.4L26.3,30.4z"/>
<path d="M23.9,27c0.1,0,0.2-0.1,0.2-0.2c0.1-0.7,1.1-11.9,1.1-12.1h-7.7c-0.3,0-0.6,0-0.9,0c-0.2,0-0.5,0-0.7,0v4c0.1,0,0.2,0,0.4,0
	c1.4,0,2.8,0,4.2,0c0.1,0,0.2,0,0.3,0c0,0.1,0,0.1,0,0.2c0,0.4-0.4,4.1-0.4,4.6c0,0.3,0,0.3-0.3,0.3c-1.4,0.4-2.7,0.7-4.1,1.1
	c0,0-0.1,0-0.1,0v4.2C15.9,29.2,23.3,27.1,23.9,27z"/>
<path d="M16.1,10.6c3,0,6.1,0,9.1,0c0.1,0,0.1,0,0.2,0c0.1,0,0.2,0,0.2-0.2c0-0.2,0-0.3,0-0.5c0.1-1,0.2-2,0.3-3.1
	c0-0.1,0-0.2,0-0.3c-0.1,0-0.2,0-0.3,0c-3.2,0-6.4,0-9.6,0v4C15.9,10.6,16,10.6,16.1,10.6L16.1,10.6z"/>
</svg>
