<?xml version="1.0" encoding="UTF-8"?>
<svg id="Layer_1" data-name="Layer 1" xmlns="http://www.w3.org/2000/svg" viewBox="0 0 379.38 369.81">
  <defs>
    <style>
      .cls-1 {
        stroke-width: 0px;
      }
    </style>
  </defs>
  <path class="cls-1" d="M189.7,369.57c-40.6,0-81.2-.02-121.79.01-9.66,0-18.93-1.75-27.76-5.65-11.36-5.01-20.56-12.64-27.76-22.76-6.44-9.06-10.22-19.14-11.67-30.11-.38-2.89-.53-5.82-.53-8.74-.03-78.28-.07-156.55,0-234.83.02-19.14,6.95-35.53,20.78-48.83C31.17,8.87,43.38,2.99,57.37.91c3.47-.51,7.01-.76,10.52-.76,81.2-.04,162.39-.05,243.59-.02,12.83,0,24.87,3.13,35.83,9.95,10.38,6.46,18.47,15.07,24.19,25.91,4.57,8.66,7.16,17.85,7.53,27.65.09,2.36.16,4.72.16,7.07,0,76.96,0,153.91.02,230.87,0,9.98-1.75,19.57-5.94,28.66-3.86,8.38-9.15,15.73-15.99,21.96-6.54,5.95-13.95,10.42-22.25,13.42-6.4,2.31-13.01,3.63-19.81,3.9-1.6.06-3.2.05-4.8.05-40.24,0-80.48,0-120.71,0ZM153.48,93.85c-6.16,0-12.32,0-18.48,0-.56,0-1.12,0-1.68.05-1.36.14-1.89.71-1.98,2.1-.04.64.04,1.29-.04,1.92-.43,3.2-.57,6.48-1.42,9.57-1.36,4.92-3.17,9.73-4.84,14.56-4.17,12.1-8.36,24.19-12.56,36.28-5.24,15.11-10.5,30.21-15.75,45.32-5.23,15.03-10.46,30.06-15.69,45.09-1,2.87-2.01,5.74-2.98,8.61-.74,2.18-.04,3.34,2.05,3.35,9.84.02,19.68.02,29.52,0,1.63,0,2.59-.74,3.11-2.31.57-1.71,1.09-3.43,1.64-5.14,3.19-9.9,6.38-19.79,9.58-29.68.66-2.05.69-2.04,2.89-2.04,9.48,0,18.96,0,28.44,0,8.76,0,17.52.02,26.28-.02,1.27,0,1.95.4,2.35,1.66,1.04,3.28,2.22,6.51,3.34,9.76,2.94,8.55,5.87,17.1,8.8,25.64.55,1.61,1.37,2.17,3.03,2.17,5.88-.01,11.76-.02,17.64-.03,4.96,0,9.92.01,14.88-.02,1.93-.01,2.51-.83,2-2.69-.08-.31-.2-.61-.31-.91-1.45-4.07-2.91-8.13-4.35-12.2-5.09-14.36-10.16-28.72-15.26-43.08-4.2-11.83-8.42-23.66-12.61-35.49-2.27-6.41-4.49-12.83-6.76-19.24-4.13-11.64-8.28-23.28-12.41-34.92-1.79-5.05-3.58-10.1-5.35-15.16-.92-2.63-.45-3.13-4.58-3.15-6.16-.03-12.32,0-18.48,0ZM250.83,198.01c0,5.32,0,10.64,0,15.96,0,14.52,0,29.04,0,43.56,0,3.45.64,4.1,4.03,4.1,9.36,0,18.72,0,28.08,0,.52,0,1.04,0,1.56-.07,1.19-.14,1.89-.79,1.97-2.02.06-.88.15-1.76.15-2.63,0-39.28,0-78.55,0-117.83,0-.8-.07-1.6-.15-2.39-.13-1.18-.84-1.77-2-1.82-.52-.02-1.04-.03-1.56-.03-9.4,0-18.8,0-28.2,0-3.59,0-3.87.28-3.87,3.9,0,19.76,0,39.52,0,59.27ZM269.01,121.77c11.26.56,19.9-8.44,19.82-20.13-.06-10.2-6.43-19.82-19.6-19.8-11.9.02-20.08,9.05-20.16,19.55-.1,12.29,8.8,20.85,19.94,20.39Z"/>
  <path class="cls-1" d="M153.67,123.97c.91,3.18,1.78,6.37,2.73,9.54,2.28,7.58,4.56,15.15,6.9,22.71,2.1,6.8,4.26,13.57,6.41,20.35,1.09,3.43,2.21,6.85,3.32,10.27.59,1.81.44,2.05-1.4,2.05-11.91,0-23.82,0-35.74,0-1.76,0-1.8-.07-1.27-1.76,3.2-10.3,6.4-20.6,9.58-30.92,2.35-7.64,4.68-15.28,6.94-22.94.76-2.56,1.27-5.2,1.89-7.8.12-.5.23-.99.35-1.49.1,0,.2,0,.3,0Z"/>
</svg>