<?xml version="1.0" encoding="utf-8"?>
<!-- Generator: Adobe Illustrator 28.1.0, SVG Export Plug-In . SVG Version: 6.00 Build 0)  -->
<svg version="1.1" id="Layer_1" xmlns="http://www.w3.org/2000/svg" xmlns:xlink="http://www.w3.org/1999/xlink" x="0px" y="0px"
	 viewBox="0 0 805.5 900" style="enable-background:new 0 0 805.5 900;" xml:space="preserve">
<style type="text/css">
	.st0{display:none;}
	.st1{display:inline;}
</style>
<g class="st0">
	<path class="st1" d="M768.6,387.9C768.6,387.9,768.6,387.9,768.6,387.9c0-37.7-0.1-75.4-0.1-113c0-0.1,0-0.2,0-0.3
		c0-4.2-0.4-8.3-1.1-12.2c0-0.2-0.1-0.4-0.1-0.7c-0.4-1.9-0.8-3.7-1.3-5.5c-1.1-3.8-2.5-7.4-4.3-10.9c-0.5-0.9-1-1.8-1.6-2.7
		c-0.7-1.1-1.4-2.3-2.2-3.4c-0.2-0.3-0.4-0.6-0.6-0.9c-0.6-0.8-1.2-1.6-1.8-2.4c-1.7-2.1-3.6-4.1-5.6-6c-1.1-1-2.3-2-3.5-3
		c-0.8-0.7-1.7-1.3-2.5-1.9c-1.8-1.3-3.8-2.6-5.8-3.8c-13.6-8.1-27.2-16.1-40.9-24c-6.3-3.6-12.6-7.3-18.9-10.9
		c-12-6.9-24-13.8-36-20.7c-26.5-15.3-53-30.6-79.5-45.9C520.5,95.1,478.2,70.7,436,46.4c-0.3-0.2-0.5-0.3-0.8-0.5
		c-0.4-0.2-0.7-0.4-1.1-0.6c-0.3-0.1-0.5-0.3-0.8-0.4c-0.4-0.2-0.8-0.4-1.1-0.6c-0.3-0.2-0.7-0.3-1-0.5c-0.3-0.1-0.6-0.3-0.9-0.4
		c-0.4-0.2-0.8-0.4-1.2-0.5c-0.1-0.1-0.3-0.1-0.4-0.2c-0.1,0-0.2-0.1-0.3-0.1c-0.3-0.1-0.5-0.2-0.8-0.3c-0.2-0.1-0.4-0.2-0.5-0.2
		c0,0-0.1,0-0.1,0s-0.1,0-0.1,0c-0.1,0-0.2-0.1-0.3-0.1c-0.5-0.2-1-0.4-1.4-0.6c-0.1-0.1-0.3-0.1-0.4-0.2c-0.5-0.2-1-0.4-1.6-0.6
		c-0.1,0-0.2-0.1-0.2-0.1c-0.5-0.2-1.1-0.4-1.6-0.5c-0.4-0.1-0.7-0.2-1.1-0.3c-0.2-0.1-0.4-0.1-0.6-0.2c0,0,0,0,0,0c0,0,0,0,0,0
		c-5.4-1.6-10.8-2.4-16.3-2.5c0,0,0,0,0,0c0,0-0.1,0-0.1,0c-0.1,0-0.1,0-0.2,0c-0.1,0-0.2,0-0.2,0c-0.7,0-1.4,0-2.1,0c0,0,0,0-0.1,0
		c-0.3,0-0.7,0-1,0.1c-0.4,0-0.7,0-1.1,0.1c0,0,0,0,0,0c-1.4,0.1-2.8,0.2-4.2,0.4c0,0,0,0,0,0c0,0,0,0,0,0c-0.7,0.1-1.3,0.2-2,0.3
		c0,0,0,0,0,0c0,0,0,0-0.1,0c-0.3,0.1-0.7,0.1-1,0.2c-0.3,0.1-0.6,0.1-0.9,0.2c0,0-0.1,0-0.1,0c0,0,0,0,0,0
		c-0.6,0.1-1.2,0.3-1.9,0.4c0,0,0,0,0,0c0,0,0,0,0,0c0,0-0.1,0-0.1,0c0,0,0,0-0.1,0c0,0,0,0,0,0c-0.6,0.1-1.2,0.3-1.8,0.5
		c-0.1,0-0.2,0.1-0.3,0.1c-0.3,0.1-0.6,0.2-0.9,0.3c-0.3,0.1-0.6,0.2-0.9,0.3c0,0-0.1,0-0.1,0c-0.1,0-0.1,0-0.2,0.1
		c-0.5,0.2-1.1,0.4-1.6,0.5c-0.2,0.1-0.3,0.1-0.5,0.2c-0.5,0.2-1,0.4-1.5,0.6c-0.1,0-0.2,0.1-0.4,0.1c-0.1,0-0.2,0.1-0.2,0.1
		c0,0,0,0,0,0c-0.5,0.2-0.9,0.4-1.4,0.6c-0.2,0.1-0.3,0.2-0.5,0.2c0,0-0.1,0-0.1,0c0,0-0.1,0-0.1,0c-0.4,0.2-0.9,0.4-1.3,0.6
		c0,0-0.1,0-0.1,0c-0.2,0.1-0.5,0.2-0.7,0.4c0,0,0,0-0.1,0c-0.2,0.1-0.3,0.2-0.5,0.2c-0.2,0.1-0.4,0.2-0.6,0.3
		c-0.1,0.1-0.3,0.1-0.4,0.2c-0.3,0.1-0.5,0.3-0.8,0.4c-0.3,0.1-0.5,0.3-0.8,0.4c-0.5,0.3-1,0.6-1.6,0.9c-0.1,0.1-0.3,0.2-0.4,0.2
		c-5.4,3.1-10.8,6.1-16.2,9.2c-10.8,6.2-21.6,12.4-32.4,18.6c-16.2,9.3-32.3,18.7-48.4,28.1c-8.5,4.9-17,9.9-25.5,14.8
		c-2.3,1.3-4.5,2.6-6.8,3.9c-12,6.9-24,13.9-36,20.8c-44.8,25.8-89.6,51.7-134.3,77.6c-0.9,0.5-1.8,1.1-2.6,1.6c0,0,0,0,0,0
		c-0.1,0-0.1,0.1-0.2,0.1c-0.1,0-0.1,0.1-0.2,0.1c-0.1,0.1-0.2,0.1-0.3,0.2c-0.2,0.1-0.4,0.3-0.6,0.4c-0.6,0.4-1.1,0.7-1.6,1.1
		c0,0-0.1,0-0.1,0.1c-0.1,0-0.1,0.1-0.2,0.1c-0.8,0.6-1.7,1.2-2.5,1.8c-0.1,0-0.1,0.1-0.2,0.1c0,0-0.1,0.1-0.1,0.1c0,0,0,0,0,0
		c0,0,0,0-0.1,0.1c-0.5,0.4-0.9,0.7-1.4,1.1c-0.3,0.2-0.5,0.4-0.8,0.6c0,0,0,0,0,0c0,0-0.1,0-0.1,0.1c0,0,0,0,0,0c0,0,0,0-0.1,0
		c-0.8,0.7-1.6,1.4-2.4,2c-0.8,0.7-1.5,1.4-2.2,2.1c0,0,0,0,0,0c0,0,0,0,0,0c0,0,0,0,0,0c-1.5,1.5-2.8,3-4.1,4.5c0,0,0,0,0,0
		c0,0,0,0,0,0s0,0,0,0c-0.3,0.4-0.6,0.7-0.9,1.1c0,0,0,0,0,0c-7.8,9.9-12.1,21.7-12.9,35.6c0,0,0,0,0,0c0,0,0,0,0,0
		c-0.1,0.8-0.1,1.7-0.1,2.5c0,0,0,0,0,0c0,0,0,0,0,0c0,0,0,0,0,0c0,0.9,0,1.7,0,2.6c0,12.3,0,24.6,0,37c0,6.2,0,12.3,0,18.5
		c0,0,0,0,0,0c0,39.2,0,78.4,0,117.6c0,20.7,0,41.4,0,62.2c0,0,0,0,0,0v0c0,0.1,0,0.1,0,0.2c0,15.9,0,31.8,0,47.7c0,0,0,0,0,0v0
		c0,0.5,0,1,0,1.5s0,1,0,1.5c0,16.4,0,32.8,0.1,49.2c0,0,0,0,0,0c0,4.4,0,8.8,0,13.2c0.1,23.2,10.7,41.4,30.5,53.4
		c23.2,14,46.9,27.2,70.4,40.8c0.9,0.5,1.7,1,2.6,1.5c29.2,16.9,59.9,27.1,94.3,21.9c22.9-3.5,42.2-13,55.6-32.6
		c12.4-18.2,16-38.8,16-60.3c0.1-114,0-228,0-342c0-8.6-2.8-11.5-11.2-11.6c-10.7-0.1-21.4,0-32.1,0.1c-9.2,0.1-12,2.8-12,11.9
		c0,53.3,0,106.7,0,160c0,61,0,121.9,0,182.9c0,20.2-17.2,37.4-37.4,38.2c-11.2,0.4-21.6-2-31.4-6.4c-2.7-1.2-5.4-2.6-8.1-4.1
		c-4.7-2.7-9.4-5.4-14.2-8.2c0,0,0,0,0,0c-5.8-3.4-11.7-6.8-17.5-10.2c-3.2-1.9-6.4-3.7-9.7-5.6c-1.2-0.7-2.5-1.4-3.7-2.2
		c-4.3-2.5-8.5-4.9-12.8-7.3c-1-0.6-1.9-1.1-2.9-1.6c-4.5-2.6-9.1-5.1-13.7-7.7c-7.4-4.1-10.3-9-10.2-17.4c0.2-75,0.1-150,0.1-225
		c0-38.3,0.1-76.7,0-115c0-6.4,2-10.8,7.9-14.2c31.1-17.7,62-35.7,93-53.6C259,171.5,327.4,132,395.8,92.4c4.7-2.7,8.9-2.6,13.6,0.1
		c28.2,16.4,56.5,32.6,84.7,48.9c71,41,142.1,82,213.2,123c5.5,3.2,8,7.1,8,13.6c-0.1,114.2-0.2,228.3,0,342.5
		c0,7.6-2.8,11.8-9.1,15.5c-54.4,31.2-108.7,62.6-163,94c-44.7,25.8-89.4,51.5-134,77.3c-4.7,2.8-8.8,2.6-13.5-0.2
		c-24.7-14.8-49.5-29.3-74.2-44.1c-3.8-2.3-7-2.2-11.1-0.2c-13.3,6.5-26.8,12.4-40.2,18.6c-1.5,0.7-3,1.5-4.5,2.4
		c-1.5,0.8-2.9,1.7-4.4,2.6c0.9,0.9,1.8,2,2.7,3c1.5,1.7,3,3.3,4.8,4.4c13.8,8.3,27.6,16.5,41.5,24.7c20.1,11.9,40.2,23.8,60.3,35.5
		c4.6,2.7,9.3,4.8,13.9,6.3c0,0,0,0,0,0c0,0,0,0,0,0c0.8,0.3,1.6,0.5,2.4,0.7c0,0,0,0,0,0c0.8,0.2,1.5,0.4,2.3,0.6
		c0.1,0,0.2,0,0.3,0.1c0.4,0.1,0.8,0.2,1.3,0.3c0.3,0.1,0.6,0.1,0.9,0.2c0.1,0,0.1,0,0.2,0c0.4,0.1,0.8,0.1,1.2,0.2
		c0.4,0.1,0.8,0.1,1.2,0.2c0,0,0,0,0,0c0,0,0,0,0,0c0,0,0,0,0,0c0.3,0,0.6,0.1,1,0.1c0.4,0,0.7,0.1,1.1,0.1c0,0,0,0,0,0
		c0.7,0.1,1.4,0.1,2,0.2c0,0,0,0,0,0c0,0,0,0,0,0c0,0,0,0,0,0c0.4,0,0.7,0,1.1,0.1c0.3,0,0.6,0,1,0.1c0,0,0,0,0,0c0,0,0,0,0,0
		c0,0,0,0,0,0c0.7,0,1.4,0,2.2,0.1c0,0,0,0,0,0c0.1,0,0.1,0,0.2,0c0,0,0,0,0,0c0.3,0,0.6,0,1,0c0,0,0,0,0,0c0,0,0,0,0,0
		c0.5,0,1,0,1.5,0c0,0,0,0,0,0c10.1-0.4,20.1-3.5,30-9.2c72.3-41.5,144.4-83.4,216.6-125c28.7-16.6,57.6-32.7,86-49.7
		c6.3-3.7,11.6-8.1,16-13c0,0,0,0,0,0c0,0,0,0,0,0c0,0,0,0,0,0c1.6-1.8,3-3.6,4.4-5.5c0.4-0.5,0.7-1,1-1.5c0,0,0.1-0.1,0.1-0.1
		c0.4-0.6,0.8-1.3,1.2-2c0,0,0,0,0,0c0,0,0,0,0,0c0,0,0,0,0,0c0.3-0.5,0.6-1,0.9-1.6s0.6-1,0.9-1.6c0,0,0,0,0,0c0,0,0,0,0,0
		c0.5-1.1,1-2.2,1.5-3.3c0,0,0,0,0-0.1c0.3-0.7,0.6-1.5,0.9-2.2c0,0,0,0,0,0c0,0,0,0,0,0c0,0,0,0,0,0c0,0,0,0,0,0
		c0.3-0.8,0.6-1.5,0.8-2.3c0.3-0.8,0.5-1.6,0.7-2.4c0.5-1.6,0.8-3.2,1.2-4.9c0,0,0,0,0,0c0,0,0,0,0,0c0,0,0,0,0,0
		c0.2-0.9,0.3-1.9,0.5-2.8c0.4-2.4,0.6-5,0.7-7.5c0,0,0,0,0,0c0-1.1,0.1-2.2,0.1-3.2c0-19.1,0-38.2,0.1-57.3v0c0,0,0,0,0,0
		c0-29.8,0-59.7,0.1-89.5c0-0.1,0-0.3,0-0.4c0,0,0-0.1,0-0.1C768.6,447.7,768.6,417.8,768.6,387.9L768.6,387.9z"/>
	<path class="st1" d="M547.2,565.2c-35,7.1-70.1,6.8-105.1,0c-16.4-3.2-31-10.1-40.4-25c-5.7-9.1-8-19.3-9.7-29.7
		c-0.8-5.2-3.8-7.8-8.7-7.8c-12.9-0.1-25.7,0-38.6,0.3c-5.7,0.1-8.6,3.2-8.5,8.9c0.3,16.3,3,32.1,10.3,46.9
		c13.1,26.3,35.5,41.6,62.5,51c27.9,9.7,56.8,12.1,86.1,13c13.6-1,27.2-1.6,40.8-3.2c19.6-2.3,38.6-7.1,56.4-15.9
		c23.9-11.9,42-29.1,50.1-55.3c5.1-16.4,5.5-33.1,2.6-49.9c-3.5-21-14.6-36.7-32.9-47.6c-17.9-10.6-37.6-16.2-57.8-19.7
		c-32.1-5.5-64.4-10-96.5-15.2c-13.6-2.2-27.2-4.9-39.7-11.2c-5.2-2.6-9.6-6.4-11.1-12.2c-2.6-9.8-1.9-19.6,3.2-28.5
		c7.1-12.7,19.6-17.7,32.8-20.5c29.2-6.2,58.6-5.5,87.8,0.2c14.3,2.8,27,9.4,36,21.6c6.3,8.6,9.6,18.5,12.2,28.7
		c1.5,5.9,3.6,7.6,9.3,7.6c12.3,0.1,24.6,0.1,37,0c6.9,0,10-2.9,9.2-9.9c-1.2-9.5-2.5-19.2-5.2-28.4c-10.5-35.1-35.2-55.8-69.3-66.3
		c-29-8.9-58.8-10.5-88.9-9.3c-23.8,0.9-46.9,4.9-68.8,14.5c-34.6,15.3-56.7,44.2-55.5,85.4c0.9,30.7,13.7,53.6,41.4,67.6
		c22.5,11.3,46.8,15.7,71.4,19.1c24.4,3.3,48.9,5.7,73.2,9.4c14.3,2.2,28.4,5.4,41.2,12.8c6.3,3.6,11.4,8.4,12.9,15.7
		c2.1,10.2,1.2,20.3-3.8,29.6C575.3,556.3,561.8,562.2,547.2,565.2z"/>
</g>
<path d="M805.4,287.7l0-6.1l0-7.1c-0.1-36.2-17.2-66.4-48.4-85c-23.1-13.8-46.7-27.3-69.5-40.5c-8.8-5-17.9-10.3-26.8-15.4
	c-14.7-8.5-29.4-17-44-25.4c-53.2-30.7-108.1-62.5-162.2-93.6c-0.9-0.5-1.8-1-2.8-1.6c-0.3-0.2-0.7-0.4-1-0.5l-0.1-0.1l-0.2-0.1
	c-0.5-0.3-1-0.5-1.5-0.8c-0.4-0.2-0.9-0.4-1.3-0.7l-0.2-0.1l-0.2-0.1c-0.4-0.2-0.8-0.4-1.2-0.6c-0.3-0.2-0.7-0.3-1-0.5l0,0l-0.6-0.3
	l0,0l-1.7-0.8l-0.2-0.1c-0.4-0.2-0.7-0.3-1.1-0.5L441,7.9l-0.1,0l-0.1,0l-0.4-0.2c-0.3-0.1-0.6-0.2-0.8-0.3L439,7l-1.8-0.6
	c-0.6-0.2-1.3-0.5-1.9-0.7l-0.3-0.1c-0.8-0.3-1.6-0.5-2.3-0.8c-0.5-0.2-1.1-0.3-1.6-0.5l-0.1,0l0,0c-0.3-0.1-0.7-0.2-1-0.3
	c-8.6-2.5-17.4-3.9-26.2-3.9l-0.4,0l-0.2,0H403l-0.3,0l-0.2,0c-1,0-2,0-3,0l0,0l0,0l-0.2,0l-0.1,0c-1.1,0-2.1,0.1-3.2,0.2l0,0l0,0
	l-0.2,0l0,0c-1.3,0.1-2.5,0.2-3.8,0.3h-0.3l-2.3,0.3l-0.2,0l-0.2,0c-0.2,0-0.4,0.1-0.7,0.1l-0.3,0l0,0c-0.6,0.1-1.3,0.2-1.9,0.3
	l-0.3,0l-0.2,0c-1,0.2-1.9,0.4-2.8,0.5l-0.1,0l-0.1,0l-0.2,0c-0.6,0.1-1.2,0.2-1.7,0.4l-0.4,0.1L379,2.9c-0.9,0.2-1.7,0.4-2.5,0.7
	c-0.2,0.1-0.4,0.1-0.6,0.2c-0.9,0.3-1.7,0.5-2.5,0.8c-0.2,0.1-0.5,0.1-0.7,0.2c-0.6,0.2-1.5,0.5-2.4,0.8c-0.3,0.1-0.6,0.2-0.8,0.3
	c-0.8,0.3-1.5,0.5-2.2,0.8c-0.3,0.1-0.5,0.2-0.8,0.3h0l-0.2,0.1c-0.7,0.3-1.4,0.5-2,0.8c-0.3,0.1-0.7,0.3-1,0.4l-0.1,0v0l-0.2,0.1
	c-0.6,0.3-1.2,0.5-1.7,0.8c-0.4,0.2-0.8,0.4-1.2,0.6l-0.1,0.1l0,0l-0.2,0.1c-0.5,0.2-1,0.4-1.4,0.7c-0.5,0.2-1,0.5-1.5,0.8l-0.2,0.1
	l-0.1,0c-0.4,0.2-0.8,0.4-1.1,0.6c-1,0.5-2,1-2.9,1.6c-30.1,17-60.3,34.5-89.6,51.5c-13.1,7.6-26.7,15.5-40,23.2
	c-24.6,14.2-49.3,28.5-74,42.7c-31.6,18.2-64.3,37.1-96.4,55.6c-1.2,0.7-2.4,1.4-3.7,2.3l-0.5,0.3l-0.1,0l-0.1,0l-0.3,0.2
	c-1.1,0.7-2.1,1.4-3.1,2.1c-0.2,0.1-0.4,0.3-0.6,0.4c-1.2,0.8-2.4,1.7-3.6,2.6c-0.2,0.1-0.3,0.3-0.5,0.4l0,0l0,0
	c-1.1,0.8-2.2,1.7-3.2,2.5c-0.1,0.1-0.3,0.2-0.4,0.3c-2.4,2-4.8,4.1-7,6.3l0,0l-0.2,0.2c-2.2,2.2-4.4,4.6-6.3,6.9l-0.1,0.1l-0.5,0.6
	c-0.3,0.3-0.6,0.7-0.8,1.1C9.4,227.9,2.3,245.8,0.6,265.3l0,0.2L0.4,267c-0.1,0.9-0.1,1.9-0.2,2.8c-0.1,1.1-0.1,2.1-0.1,3.2l0,0.1
	c0,0.1,0,0.2,0,0.2c0,1.3-0.1,2.5-0.1,3.7c0,15,0,30.1,0,45.1l0,10.3C0,393.1,0,453.6,0,512.1v0.2c0,15.9,0,31.8,0,47.7l0,1.3l0,1.8
	c0,16.7,0,33.3,0.1,49.3l0,6.2l0,7.1c0.1,36.2,17.2,66.4,48.4,85c23.1,13.8,46.7,27.4,69.6,40.5c8.8,5,17.9,10.3,26.8,15.4
	c14.7,8.5,29.3,16.9,44,25.4c53.2,30.7,108.2,62.5,162.3,93.7c6.7,3.9,13.6,7,20.6,9.3l2,0.8l1.5,0.3c0.5,0.2,1,0.3,1.6,0.4l0,0l0,0
	l0.3,0.1l0,0c1.1,0.3,2.2,0.6,3.4,0.9c0.2,0,0.3,0.1,0.5,0.1c0.4,0.1,0.7,0.2,1.1,0.2l3.2,1.6h0l0,0l6.3,0c0,0,0,0,0,0l0,0l0.1,0
	l1.8,0.4l1.5,0l0,0l1.8,0c0.2,0,0.4,0,0.5,0l0.1,0l1,0c0.9,0,1.9,0.1,2.8,0.1l0.2,0l0.5,0c0.1,0,0.1,0,0.2,0l0.1,0h0.1
	c0.4,0,0.9,0,1.3,0h0.7l0.3,0c0.5,0,0.9,0,1.4,0c16.2-0.5,32-5.1,47.1-13.6c30.1-17,60.3-34.5,89.6-51.5c13.1-7.6,26.7-15.5,40-23.2
	c24.7-14.3,49.4-28.5,74.2-42.8c31.5-18.2,64.1-37,96.2-55.5c10.9-6.3,20.3-13.9,27.9-22.6c2.2-2.5,4.3-5.1,6.2-7.8l1.8-1.8l0.8-1.6
	l0.5-0.5l0.7-1.5l0.9-1.2l0.6-1.7l0,0c0.7-1.3,1.4-2.6,2.1-3.9l0-0.1l0-0.1l0,0l0,0l0,0l0,0l0-0.1c0.9-1.7,1.7-3.5,2.5-5.2l0.1-0.1
	l0.1-0.2c0.5-1.1,1-2.3,1.4-3.5l0,0l0,0c1.8-4.9,3.3-10,4.4-15.2l0.2-0.8l0-0.3c0.9-4.8,1.5-9.7,1.7-14.7c0.1-2.4,0.2-4.8,0.2-7.1
	c0-14.9,0-29.7,0-44.6l0-10.8c0-29.8,0-59.7,0.1-89.5V478v-0.1l0-0.2c0-30.3,0-60.5,0-89.8C805.5,357.9,805.5,322.5,805.4,287.7z
	 M768.6,477.8c0,0.1,0,0.3,0,0.4c0,29.8,0,59.7-0.1,89.5c0,0,0,0,0,0v0c0,19.1,0,38.2-0.1,57.3c0,1.1,0,2.2-0.1,3.2c0,0,0,0,0,0
	c-0.1,2.6-0.4,5.1-0.7,7.5c-0.1,1-0.3,1.9-0.5,2.8c0,0,0,0,0,0c0,0,0,0,0,0c0,0,0,0,0,0c-0.3,1.7-0.7,3.3-1.2,4.9
	c-0.2,0.8-0.5,1.6-0.7,2.4c-0.3,0.8-0.5,1.6-0.8,2.3c0,0,0,0,0,0c0,0,0,0,0,0c0,0,0,0,0,0c0,0,0,0,0,0c-0.3,0.7-0.6,1.5-0.9,2.2
	c0,0,0,0,0,0.1c-0.5,1.1-1,2.2-1.5,3.3c0,0,0,0,0,0c0,0,0,0,0,0c-0.3,0.5-0.6,1-0.9,1.6s-0.6,1.1-0.9,1.6c0,0,0,0,0,0c0,0,0,0,0,0
	c0,0,0,0,0,0c-0.4,0.7-0.8,1.3-1.2,2c0,0-0.1,0.1-0.1,0.1c-0.3,0.5-0.7,1-1,1.5c-1.3,1.9-2.8,3.8-4.4,5.5c0,0,0,0,0,0c0,0,0,0,0,0
	c0,0,0,0,0,0c-4.4,4.9-9.7,9.3-16,13c-28.4,17-57.3,33.1-86,49.7c-72.2,41.7-144.3,83.5-216.6,125c-9.9,5.7-20,8.8-30,9.2
	c0,0,0,0,0,0c-0.5,0-1,0-1.5,0c0,0,0,0,0,0c0,0,0,0,0,0c-0.3,0-0.6,0-1,0c0,0,0,0,0,0c-0.1,0-0.1,0-0.2,0c0,0,0,0,0,0
	c-0.7,0-1.4,0-2.2-0.1c0,0,0,0,0,0c0,0,0,0,0,0c0,0,0,0,0,0c-0.3,0-0.6,0-1-0.1c-0.4,0-0.7,0-1.1-0.1c0,0,0,0,0,0c0,0,0,0,0,0
	c0,0,0,0,0,0c-0.7-0.1-1.4-0.1-2-0.2c0,0,0,0,0,0c-0.4,0-0.7-0.1-1.1-0.1c-0.3,0-0.6-0.1-1-0.1c0,0,0,0,0,0c0,0,0,0,0,0c0,0,0,0,0,0
	c-0.4-0.1-0.8-0.1-1.2-0.2c-0.4-0.1-0.8-0.1-1.2-0.2c-0.1,0-0.1,0-0.2,0c-0.3-0.1-0.6-0.1-0.9-0.2c-0.4-0.1-0.8-0.2-1.3-0.3
	c-0.1,0-0.2,0-0.3-0.1c-0.8-0.2-1.5-0.4-2.3-0.6c0,0,0,0,0,0c-0.8-0.2-1.6-0.5-2.4-0.7c0,0,0,0,0,0c0,0,0,0,0,0
	c-4.7-1.5-9.3-3.6-13.9-6.3c-20.2-11.7-40.3-23.6-60.3-35.5c-13.8-8.2-27.7-16.5-41.5-24.7c-1.8-1.1-3.3-2.7-4.8-4.4
	c-0.9-1-1.7-2-2.7-3c1.5-0.8,2.9-1.7,4.4-2.6c1.5-0.8,2.9-1.7,4.5-2.4c13.4-6.2,27-12.1,40.2-18.6c4.1-2,7.3-2.1,11.1,0.2
	c24.7,14.8,49.5,29.3,74.2,44.1c4.7,2.8,8.7,2.9,13.5,0.2c44.6-25.9,89.3-51.6,134-77.3c54.3-31.3,108.6-62.8,163-94
	c6.3-3.6,9.2-7.9,9.1-15.5c-0.2-114.2-0.2-228.3,0-342.5c0-6.5-2.5-10.4-8-13.6c-71.1-40.9-142.1-82-213.2-123
	c-28.2-16.3-56.5-32.5-84.7-48.9c-4.7-2.7-8.9-2.8-13.6-0.1C327.4,132,259,171.5,190.6,211.1c-31,17.9-61.9,35.9-93,53.6
	c-5.9,3.4-7.9,7.8-7.9,14.2c0.1,38.3,0,76.7,0,115c0,75,0.1,150-0.1,225c0,8.3,2.8,13.3,10.2,17.4c4.6,2.5,9.1,5.1,13.7,7.7
	c1,0.5,1.9,1.1,2.9,1.6c4.3,2.4,8.5,4.9,12.8,7.3c1.2,0.7,2.5,1.4,3.7,2.2c3.2,1.9,6.4,3.7,9.7,5.6c5.8,3.4,11.7,6.8,17.5,10.2
	c0,0,0,0,0,0c4.7,2.7,9.4,5.5,14.2,8.2c2.6,1.5,5.3,2.9,8.1,4.1c9.8,4.4,20.2,6.8,31.4,6.4c20.2-0.8,37.4-18,37.4-38.2
	c0-61,0-121.9,0-182.9c0-53.3,0-106.7,0-160c0-9.1,2.8-11.8,12-11.9c10.7-0.1,21.4-0.1,32.1-0.1c8.4,0,11.2,3,11.2,11.6
	c0,114,0,228,0,342c0,21.5-3.6,42.2-16,60.3c-13.3,19.6-32.7,29.1-55.6,32.6c-34.4,5.2-65.1-4.9-94.3-21.9c-0.9-0.5-1.7-1-2.6-1.5
	c-23.5-13.6-47.2-26.8-70.4-40.8c-19.8-12-30.4-30.1-30.5-53.4c0-4.4,0-8.8,0-13.2c0,0,0,0,0,0c-0.1-16.4-0.1-32.8-0.1-49.2
	c0-0.5,0-1,0-1.5s0-1,0-1.5v0c0,0,0,0,0,0c0-15.9,0-31.8,0-47.7c0-0.1,0-0.1,0-0.2v0c0,0,0,0,0,0c0-20.7,0-41.4,0-62.2
	c0-39.2,0-78.4,0-117.6c0,0,0,0,0,0c0-6.2,0-12.3,0-18.5c0-12.3,0-24.6,0-37c0-0.9,0-1.7,0-2.6c0,0,0,0,0,0c0,0,0,0,0,0c0,0,0,0,0,0
	c0-0.8,0.1-1.7,0.1-2.5c0,0,0,0,0,0c0,0,0,0,0,0c0.8-13.9,5.2-25.7,12.9-35.6c0,0,0,0,0,0c0.3-0.4,0.6-0.7,0.9-1.1c0,0,0,0,0,0
	s0,0,0,0c0,0,0,0,0,0c1.3-1.6,2.7-3.1,4.1-4.5c0,0,0,0,0,0c0,0,0,0,0,0c0,0,0,0,0,0c0.7-0.7,1.5-1.4,2.2-2.1c0.8-0.7,1.6-1.4,2.4-2
	c0,0,0,0,0.1,0c0,0,0,0,0,0c0,0,0,0,0.1-0.1c0,0,0,0,0,0c0.3-0.2,0.5-0.4,0.8-0.6c0.5-0.4,0.9-0.8,1.4-1.1c0,0,0,0,0.1-0.1
	c0,0,0,0,0,0c0,0,0.1-0.1,0.1-0.1c0.1,0,0.1-0.1,0.2-0.1c0.8-0.6,1.6-1.2,2.5-1.8c0.1,0,0.1-0.1,0.2-0.1c0,0,0.1,0,0.1-0.1
	c0.5-0.4,1.1-0.7,1.6-1.1c0.2-0.1,0.4-0.3,0.6-0.4c0.1-0.1,0.2-0.1,0.3-0.2c0.1,0,0.1-0.1,0.2-0.1c0.1,0,0.1-0.1,0.2-0.1
	c0,0,0,0,0,0c0.9-0.5,1.7-1.1,2.6-1.6c44.8-25.9,89.5-51.7,134.3-77.6c12-6.9,24-13.9,36-20.8c2.3-1.3,4.5-2.6,6.8-3.9
	c8.5-4.9,17-9.8,25.5-14.8c16.1-9.4,32.3-18.8,48.4-28.1c10.8-6.2,21.6-12.4,32.4-18.6c5.4-3.1,10.8-6.1,16.2-9.2
	c0.1-0.1,0.3-0.2,0.4-0.2c0.5-0.3,1-0.6,1.6-0.9c0.3-0.1,0.5-0.3,0.8-0.4c0.3-0.1,0.5-0.3,0.8-0.4c0.1-0.1,0.3-0.1,0.4-0.2
	c0.2-0.1,0.4-0.2,0.6-0.3c0.2-0.1,0.3-0.2,0.5-0.2c0,0,0,0,0.1,0c0.2-0.1,0.5-0.2,0.7-0.4c0,0,0.1,0,0.1,0c0.4-0.2,0.9-0.4,1.3-0.6
	c0,0,0.1,0,0.1,0c0,0,0.1,0,0.1,0c0.2-0.1,0.3-0.2,0.5-0.2c0.5-0.2,0.9-0.4,1.4-0.6c0,0,0,0,0,0c0.1,0,0.2-0.1,0.2-0.1
	c0.1,0,0.2-0.1,0.4-0.1c0.5-0.2,1-0.4,1.5-0.6c0.2-0.1,0.3-0.1,0.5-0.2c0.5-0.2,1.1-0.4,1.6-0.5c0.1,0,0.1,0,0.2-0.1
	c0,0,0.1,0,0.1,0c0.3-0.1,0.6-0.2,0.9-0.3c0.3-0.1,0.6-0.2,0.9-0.3c0.1,0,0.2-0.1,0.3-0.1c0.6-0.2,1.2-0.3,1.8-0.5c0,0,0,0,0,0
	c0,0,0,0,0.1,0c0,0,0.1,0,0.1,0c0,0,0,0,0,0c0,0,0,0,0,0c0.6-0.2,1.2-0.3,1.9-0.4c0,0,0,0,0,0c0,0,0.1,0,0.1,0
	c0.3-0.1,0.6-0.1,0.9-0.2c0.3-0.1,0.7-0.1,1-0.2c0,0,0,0,0.1,0c0,0,0,0,0,0c0.7-0.1,1.3-0.2,2-0.3c0,0,0,0,0,0c0,0,0,0,0,0
	c1.4-0.2,2.8-0.3,4.2-0.4c0,0,0,0,0,0c0.4,0,0.7,0,1.1-0.1c0.3,0,0.7,0,1-0.1c0,0,0,0,0.1,0c0.7,0,1.4,0,2.1,0c0.1,0,0.2,0,0.2,0
	c0.1,0,0.1,0,0.2,0c0,0,0.1,0,0.1,0c0,0,0,0,0,0c5.4,0.1,10.8,0.9,16.3,2.5c0,0,0,0,0,0c0,0,0,0,0,0c0.2,0.1,0.4,0.1,0.6,0.2
	c0.4,0.1,0.7,0.2,1.1,0.3c0.5,0.2,1.1,0.3,1.6,0.5c0.1,0,0.2,0.1,0.2,0.1c0.5,0.2,1,0.4,1.6,0.6c0.1,0.1,0.3,0.1,0.4,0.2
	c0.5,0.2,1,0.4,1.4,0.6c0.1,0,0.2,0.1,0.3,0.1c0,0,0.1,0,0.1,0s0.1,0,0.1,0c0.2,0.1,0.4,0.2,0.5,0.2c0.3,0.1,0.5,0.2,0.8,0.3
	c0.1,0,0.2,0.1,0.3,0.1c0.1,0.1,0.3,0.1,0.4,0.2c0.4,0.2,0.8,0.4,1.2,0.5c0.3,0.1,0.6,0.3,0.9,0.4c0.3,0.2,0.7,0.3,1,0.5
	c0.4,0.2,0.8,0.4,1.1,0.6c0.3,0.1,0.5,0.3,0.8,0.4c0.4,0.2,0.7,0.4,1.1,0.6c0.3,0.2,0.5,0.3,0.8,0.5c42.3,24.3,84.5,48.7,126.7,73.1
	c26.5,15.3,53,30.6,79.5,45.9c12,6.9,24,13.8,36,20.7c6.3,3.6,12.6,7.3,18.9,10.9c13.7,7.9,27.3,15.9,40.9,24c2,1.2,3.9,2.5,5.8,3.8
	c0.9,0.6,1.7,1.3,2.5,1.9c1.2,1,2.4,2,3.5,3c2,1.9,3.9,3.9,5.6,6c0.6,0.8,1.2,1.6,1.8,2.4c0.2,0.3,0.4,0.6,0.6,0.9
	c0.8,1.1,1.5,2.2,2.2,3.4c0.5,0.9,1.1,1.8,1.6,2.7c1.8,3.4,3.3,7.1,4.3,10.9c0.5,1.8,0.9,3.7,1.3,5.5c0,0.2,0.1,0.4,0.1,0.7
	c0.7,3.9,1.1,8,1.1,12.2c0,0.1,0,0.2,0,0.3c0.1,37.7,0.1,75.4,0.1,113c0,0,0,0,0,0v0c0,29.9,0,59.9,0,89.8
	C768.6,477.7,768.6,477.7,768.6,477.8z M586.7,512.6c-1.5-7.3-6.6-12.1-12.9-15.7c-12.8-7.3-27-10.6-41.2-12.8
	c-24.3-3.7-48.8-6.1-73.2-9.4c-24.6-3.3-48.9-7.7-71.4-19.1c-27.7-14-40.5-36.9-41.4-67.6c-1.2-41.3,20.9-70.1,55.5-85.4
	c21.9-9.7,45-13.6,68.8-14.5c30.1-1.2,59.9,0.4,88.9,9.3c34.1,10.5,58.8,31.3,69.3,66.3c2.8,9.2,4,18.8,5.2,28.4
	c0.8,7-2.3,9.8-9.2,9.9c-12.3,0.1-24.6,0.1-37,0c-5.8,0-7.8-1.7-9.3-7.6c-2.6-10.2-5.9-20.1-12.2-28.7c-9-12.2-21.6-18.8-36-21.6
	c-29.2-5.7-58.5-6.4-87.8-0.2c-13.2,2.8-25.7,7.8-32.8,20.5c-5,8.9-5.8,18.7-3.2,28.5c1.5,5.8,5.8,9.6,11.1,12.2
	c12.5,6.2,26.1,9,39.7,11.2c32.2,5.2,64.4,9.6,96.5,15.2c20.2,3.5,39.9,9.1,57.8,19.7c18.3,10.8,29.4,26.6,32.9,47.6
	c2.8,16.8,2.5,33.5-2.6,49.9c-8.1,26.2-26.2,43.4-50.1,55.3c-17.8,8.8-36.8,13.5-56.4,15.9c-13.5,1.6-27.2,2.2-40.8,3.2
	c-29.3-0.9-58.2-3.3-86.1-13c-27-9.4-49.3-24.7-62.5-51c-7.3-14.7-10-30.6-10.3-46.9c-0.1-5.7,2.8-8.7,8.5-8.9
	c12.9-0.3,25.7-0.4,38.6-0.3c4.9,0,7.9,2.6,8.7,7.8c1.7,10.4,4,20.6,9.7,29.7c9.4,14.9,24,21.8,40.4,25c35,6.8,70.1,7.1,105.1,0
	c14.6-3,28.1-8.9,35.7-23.1C587.9,532.9,588.8,522.8,586.7,512.6z"/>
</svg>
