<?xml version="1.0" encoding="UTF-8"?>
<svg id="Layer_1" data-name="Layer 1" xmlns="http://www.w3.org/2000/svg" viewBox="0 0 645.37 645.31">
  <defs>
    <style>
      .cls-1 {
        stroke-width: 0px;
      }
    </style>
  </defs>
  <path class="cls-1" d="M204.45,99.59c24.86,24.86,48.95,48.94,73.38,73.36-4.61,12.12-4.95,24.81.21,37.4,5.17,12.61,14.26,21.48,26.75,27.19.06,1.34.18,2.65.18,3.96,0,56.39-.01,112.78.07,169.17,0,2.85-.93,4.21-3.44,5.55-17.16,9.19-26.65,23.69-27.22,43.1-.79,27.17,19.41,46.87,41.8,50.43,26.45,4.21,50.51-12.9,56.52-37.41,5.15-21-4.08-43.25-22.83-54.49-.67-.4-1.48-.65-1.98-1.2-.61-.67-1.08-1.53-1.39-2.39-.21-.59-.05-1.32-.05-1.98,0-55.72,0-111.45,0-167.17v-3.48c1.02.86,1.69,1.35,2.26,1.93,20.5,20.48,40.97,40.98,61.51,61.41,1.63,1.62,2.02,2.93,1.26,5.18-9.53,28.12,7.32,58.6,37.24,64.72,27.7,5.67,53.12-12.14,58.76-38.34,5.93-27.55-12.08-54.41-39.76-59.55-7.31-1.36-14.56-1.03-21.74.94-1.06.29-2.13.55-3.81,1.36-.71-1.01-1.29-2.14-2.15-3-21.88-21.92-43.75-43.85-65.73-65.67-2.16-2.14-2.67-3.97-1.9-6.95,7.24-28-11.03-56.23-39.47-61.26-7.21-1.27-14.34-.93-21.41,1-.95.26-1.92.47-2.45.6-24.75-24.75-49.3-49.29-73.98-73.97.37-.42.9-1.1,1.51-1.7,18.6-18.61,37.21-37.2,55.81-55.81,5.53-5.54,11.97-9.53,19.64-11.28,13.89-3.18,26.37-.27,37.26,9.02,1.18,1.01,2.26,2.13,3.36,3.23,93.03,93.01,186.04,186.03,279.09,279.01,5.7,5.69,10.18,12.04,12.13,19.92,3.56,14.36.64,27.25-9.09,38.5-.94,1.09-1.99,2.09-3.01,3.11-92.57,92.56-185.14,185.12-277.68,277.7-5.19,5.19-10.91,9.46-18,11.55-15.38,4.53-29.12,1.53-41.08-9.23-.91-.82-1.75-1.7-2.61-2.57C199.65,538.7,106.87,445.92,14.05,353.17c-4.94-4.93-9.21-10.27-11.45-16.94-5.4-16.04-2.39-30.43,9.05-42.88,4.8-5.23,10-10.1,15.02-15.12,58.48-58.47,116.97-116.94,175.44-175.44.93-.93,1.58-2.15,2.34-3.21Z"/>
</svg>