<?xml version="1.0" encoding="utf-8"?>
<!-- Generator: Adobe Illustrator 28.1.0, SVG Export Plug-In . SVG Version: 6.00 Build 0)  -->
<svg version="1.1" id="Layer_1" xmlns="http://www.w3.org/2000/svg" xmlns:xlink="http://www.w3.org/1999/xlink" x="0px" y="0px"
	 viewBox="0 0 288 288" style="enable-background:new 0 0 288 288;" xml:space="preserve">
<path d="M263.2,288c-79.5,0-159,0-238.5,0c-0.3-0.1-0.5-0.2-0.8-0.2c-11.5-1.8-20.5-10.1-23.3-21.4c-0.3-1-0.5-2.1-0.7-3.1
	c0-79.5,0-159,0-238.5c0.1-0.4,0.2-0.9,0.3-1.3C2.8,11.5,10,3.9,21.7,0.7c1-0.3,2-0.4,3-0.7c79.5,0,159,0,238.5,0
	c0.3,0.1,0.5,0.2,0.8,0.2c11.5,1.8,20.5,10,23.3,21.4c0.3,1,0.5,2.1,0.7,3.1c0,79.5,0,159,0,238.5c-0.1,0.4-0.2,0.9-0.3,1.3
	c-2.5,11.9-9.6,19.5-21.3,22.7C265.4,287.6,264.3,287.8,263.2,288z M178.5,229.6c-0.1,0.2-0.1,0.4-0.1,0.5c0,8.8,0,17.5,0,26.3
	c0,0.5,0.5,1.1,0.9,1.3c1.6,0.8,3.3,1.5,5,2.1c8,2.8,16.3,4,24.7,4.4c10.1,0.5,20.2-0.2,29.9-3.3c8.9-2.8,16.3-7.7,21.1-16
	c3.6-6.2,4.5-13.1,4.3-20.1c-0.3-10-4.2-18.2-11.9-24.7c-4.5-3.8-9.6-6.7-14.9-9.2c-5.8-2.7-11.6-5.2-17.4-7.9
	c-3.9-1.9-7.6-4.2-10.3-7.7c-3.5-4.5-2.8-10.4,1.5-14.1c2.8-2.4,6.1-3.7,9.7-4.3c12.9-2.1,24.9,0.5,36.1,6.9
	c0.5,0.3,0.9,0.5,1.7,0.9c0-0.9,0-1.5,0-2.1c0-6.5,0-13,0-19.5c0-4.5,0-4.5-4.3-5.8c-7.1-2.1-14.3-2.9-21.6-3.2
	c-10.3-0.4-20.6,0.2-30.3,3.8c-14.2,5.2-23.4,14.7-24.6,30.4c-0.8,10.8,2.2,20.2,10.1,27.8c5.7,5.4,12.5,9,19.7,12.1
	c5.5,2.4,10.9,4.9,16.3,7.6c3.2,1.6,6.1,3.9,8.3,6.8c3.7,5.1,2.7,11.7-2.5,15.4c-2.6,1.8-5.5,2.9-8.6,3.4
	c-12.7,2.1-24.6-0.5-35.7-6.9C183.1,233,180.9,231.2,178.5,229.6z M102.4,211.1c0,16.4,0,32.7,0,49.1c0,2.5,0,2.5,2.4,2.5
	c7.7,0,15.5,0,23.2,0c3,0,2.9,0.5,2.9-3c0-32.5,0-65,0-97.4c0-2.5,0-2.5,2.5-2.5c10.6,0,21.2,0,31.8,0c1.4,0,1.9-0.3,1.9-1.8
	c-0.1-6.5-0.1-13,0-19.5c0-1.3-0.4-1.8-1.7-1.8c-32.4,0-64.9,0-97.3,0c-1.3,0-1.7,0.4-1.7,1.7c0.1,6.5,0,12.9,0,19.4c0,2,0,2,1.9,2
	c10.6,0,21.3,0,31.9,0c2.1,0,2.1,0,2.1,2.2C102.4,178.3,102.4,194.7,102.4,211.1z"/>
</svg>
