<?xml version="1.0" encoding="utf-8"?>
<!-- Generator: Adobe Illustrator 28.1.0, SVG Export Plug-In . SVG Version: 6.00 Build 0)  -->
<svg version="1.1" id="css" xmlns="http://www.w3.org/2000/svg" xmlns:xlink="http://www.w3.org/1999/xlink" x="0px" y="0px"
	 viewBox="0 0 25.8 29" enable-background="new 0 0 25.8 29" xml:space="preserve">
<g>
	<path d="M19.5,21.7l1.4-16.4l0,0h-8l0,0v3.2h4.6L17,11.7h-4.2V15h3.7h0.1h0.1l0.1,0.1v0.1l-0.1,1l-0.1,1.3L16.5,19l-0.1,0.2
		l-0.5,0.1L13.3,20l-0.4,0.1l0,0v3.4L19.5,21.7z"/>
	<path d="M0,0l2,26l10.8,2.9L23.6,26c0,0,2.3-25.9,2.3-26C25.8,0,0.1,0,0,0z M21.4,24.3l-8.5,2.3v-3.1l0,0l-6.6-1.8l-0.4-5.1l3.2,0
		l0.2,2.5l3.6,1l0,0V15H6H5.8l-0.1-0.1v-0.1l-0.1-1.7L5.5,12l0.1-0.1h0.2H13V8.5l-7.8,0L4.8,5.4l8,0l0,0V2.1h10.6L21.4,24.3
		L21.4,24.3z"/>
</g>
</svg>
