<?xml version="1.0" encoding="utf-8"?>
<!-- Generator: Adobe Illustrator 28.1.0, SVG Export Plug-In . SVG Version: 6.00 Build 0)  -->
<svg version="1.1" id="Layer_1" xmlns="http://www.w3.org/2000/svg" xmlns:xlink="http://www.w3.org/1999/xlink" x="0px" y="0px"
	 viewBox="0 0 36.9 36" enable-background="new 0 0 36.9 36" xml:space="preserve">
<path d="M0,17.3c0.1-0.7,0.2-1.4,0.3-2c0.4-2.6,1.4-5,2.9-7.2c2.3-3.3,5.3-5.6,9.1-7c2.6-0.9,5.2-1.2,7.9-0.9
	c3.4,0.3,6.4,1.5,9.1,3.5c3.3,2.5,5.5,5.7,6.7,9.6c0.8,2.5,0.9,5.1,0.6,7.7c-0.7,5.2-3.3,9.2-7.4,12.4c-1.5,1.1-3.2,2-4.9,2.6
	c-0.8,0.3-1.4-0.1-1.4-1c0-1.6,0-3.2,0-4.8c0-0.8,0-1.6-0.4-2.3c-0.2-0.4-0.5-0.8-0.7-1.2c0.7-0.1,1.4-0.2,2.1-0.4
	c1.9-0.5,3.6-1.3,4.7-3c0.8-1.2,1.2-2.6,1.4-4c0.1-1.1,0.2-2.2,0-3.3c-0.2-1.2-0.8-2.3-1.6-3.2c-0.1-0.2-0.2-0.3-0.1-0.5
	c0.5-1.5,0.3-3-0.2-4.5c0-0.1-0.2-0.2-0.3-0.2c-0.6-0.1-1.2,0.1-1.8,0.4c-0.9,0.4-1.8,0.9-2.8,1.4c-0.2,0.1-0.4,0.1-0.6,0.1
	c-2.9-0.7-5.7-0.7-8.6,0c-0.2,0-0.4,0-0.6-0.1C12.4,8.6,11.2,8,9.8,7.7c0,0,0,0-0.1,0c-0.9-0.2-1-0.1-1.3,0.8C8.1,9.7,8,11,8.5,12.3
	c0,0.1,0,0.3-0.1,0.4c-1.5,1.8-1.9,3.8-1.7,6.1c0.1,1.3,0.4,2.6,1,3.8c0.8,1.7,2.2,2.7,3.9,3.3c1,0.4,2.1,0.5,3.1,0.7
	c0.1,0,0.1,0,0.1,0c-0.3,0.5-0.5,1-0.8,1.5c-0.1,0.2-0.2,0.4-0.2,0.5c0,0.4-0.2,0.6-0.6,0.7c-1.2,0.3-2.3,0.5-3.4-0.2
	c-0.6-0.4-1-0.9-1.4-1.5c-0.5-0.9-1.3-1.6-2.3-1.9c-0.4-0.1-0.8-0.1-1.2-0.1c-0.2,0-0.3,0.2-0.2,0.4c0.2,0.2,0.3,0.4,0.5,0.6
	c1,0.6,1.5,1.5,2,2.5c0.3,0.6,0.5,1.1,1,1.6c0.8,0.7,1.7,1,2.7,1c0.9,0,1.7,0,2.7,0c0,0.5,0,1.1,0,1.7c0,0.5,0,0.9,0,1.4
	c0,0.9-0.6,1.3-1.4,1c-2.7-0.9-5.1-2.4-7.1-4.5c-2-2-3.4-4.3-4.4-7c-0.5-1.5-0.8-3.1-0.9-4.6c0-0.1,0-0.3-0.1-0.4
	C0,18.7,0,18,0,17.3L0,17.3z"/>
<g>
	<path d="M14.1,29.8c-0.1-0.2-0.3-0.3-0.5-0.2c-0.2,0.1-0.3,0.2-0.2,0.5c0.1,0.2,0.2,0.3,0.5,0.2C14.1,30.1,14.1,30,14.1,29.8
		L14.1,29.8z"/>
	<path d="M12.3,29.8c-0.2,0-0.3,0.2-0.3,0.4c0,0.2,0.2,0.4,0.4,0.4c0.2,0,0.3-0.2,0.3-0.4C12.7,29.9,12.6,29.8,12.3,29.8L12.3,29.8z
		"/>
	<path d="M11,29.8c-0.2,0-0.4,0.1-0.4,0.3c0,0.2,0,0.4,0.3,0.4c0.2,0,0.4-0.1,0.4-0.3C11.3,30,11.2,29.8,11,29.8L11,29.8z"/>
	<path d="M9.8,29.3c-0.2-0.1-0.4,0-0.5,0.2c-0.1,0.2-0.1,0.4,0.1,0.5c0.2,0.1,0.4,0,0.5-0.2C10,29.6,10,29.4,9.8,29.3L9.8,29.3z"/>
	<path d="M8.2,28.6c-0.2,0.2-0.2,0.4,0,0.5c0.2,0.2,0.3,0.1,0.5,0c0.2-0.2,0.2-0.4,0-0.5C8.6,28.5,8.4,28.5,8.2,28.6z"/>
	<path d="M8,27.5c-0.1-0.2-0.3-0.3-0.5-0.2c-0.2,0.1-0.3,0.3-0.2,0.5C7.4,28,7.6,28.1,7.8,28C8,27.9,8.1,27.7,8,27.5L8,27.5z"/>
	<path d="M7.1,26.3c-0.2-0.1-0.3-0.1-0.5,0.1c-0.1,0.2-0.1,0.4,0.1,0.5C6.8,27.1,7,27,7.1,26.9C7.3,26.7,7.2,26.5,7.1,26.3L7.1,26.3
		z"/>
</g>
</svg>
