<?xml version="1.0" encoding="UTF-8"?>
<svg id="Layer_1" data-name="Layer 1" xmlns="http://www.w3.org/2000/svg" viewBox="0 0 385.39 375.76">
  <defs>
    <style>
      .cls-1 {
        stroke-width: 0px;
      }
    </style>
  </defs>
  <path class="cls-1" d="M318.59,375.84H66.83c-.47-.08-.94-.18-1.41-.22-4.5-.35-8.97-.81-13.37-1.92-5.84-1.47-11.41-3.58-16.68-6.5-7.24-4-13.54-9.14-18.93-15.43-4.66-5.44-8.36-11.46-11.13-18.04-3.75-8.93-5.23-18.29-5.23-27.95.03-78.64,0-157.28.04-235.91,0-3.35.2-6.72.55-10.05.91-8.52,3.55-16.53,7.62-24.04,3.94-7.26,9.04-13.6,15.3-19.02,8.2-7.11,17.58-11.97,28.07-14.63C57.13.73,62.72.07,68.39.07c82.88.01,165.76,0,248.63.05,4.13,0,8.3.44,12.39,1.1,6.45,1.04,12.57,3.21,18.41,6.16,9.02,4.55,16.66,10.79,22.9,18.71,6.5,8.25,10.83,17.55,13.07,27.81,1.04,4.78,1.48,9.63,1.48,14.52,0,79.64,0,159.28,0,238.91,0,5.37-.59,10.66-1.83,15.91-1.45,6.14-3.7,11.94-6.76,17.44-5.3,9.51-12.48,17.31-21.5,23.4-4.72,3.18-9.76,5.76-15.15,7.63-4.73,1.63-9.53,2.9-14.53,3.4-2.3.23-4.6.49-6.9.74ZM86.67,180.93c0,25.16,0,50.31,0,75.47,0,2.4-.01,4.8,0,7.2.01,1.41.67,2.09,2.04,2.09,10.2.01,20.4.01,30.59,0,1.48,0,2.34-.89,2.41-2.39.02-.44,0-.88,0-1.32,0-15.76,0-31.51,0-47.27,0-3.16-.35-2.83,2.74-2.73,8.03.25,16.06.41,24.09-.25,6.71-.56,13.29-1.64,19.76-3.55,7.52-2.22,14.37-5.66,20.44-10.62,4.77-3.9,8.82-8.45,11.97-13.76,4.99-8.41,6.94-17.68,7.44-27.3.28-5.44-.18-10.84-1.31-16.19-.95-4.47-2.3-8.78-4.29-12.88-4.83-9.94-12.26-17.42-21.87-22.76-9.2-5.11-19.19-7.72-29.57-8.59-6.8-.57-13.66-.63-20.49-.55-13.75.16-27.5.58-41.26.87-2.36.05-2.7.36-2.7,2.71,0,27.28,0,54.55,0,81.83ZM225.16,244.88c0,4.48.02,8.96-.01,13.44-.01,1.76.73,3,2.3,3.72,6.09,2.82,12.51,4.56,19.12,5.5,4.89.7,9.84,1.08,14.77,1.34,9.1.47,18.11-.21,26.9-2.81,5.58-1.65,10.83-3.96,15.5-7.51,8.05-6.1,12.96-14.15,14.5-24.08.94-6.07.65-12.16-1.32-18.11-2.02-6.12-5.71-11.03-10.57-15.08-5.22-4.36-11.25-7.43-17.4-10.2-6.29-2.83-12.77-5.24-19.07-8.06-2.7-1.21-5.27-2.83-7.65-4.6-2.33-1.73-3.57-4.18-2.93-7.25.63-3,2.5-5,5.41-5.65,3.1-.69,6.29-1.18,9.45-1.3,5.48-.21,10.92.56,16.31,1.57,5.96,1.12,11.68,2.88,17.15,5.56,3.04,1.5,4.57.46,4.52-2.6-.12-7.92-.03-15.84-.05-23.76,0-.83.03-1.73-.25-2.49-.27-.72-.8-1.63-1.44-1.87-2.91-1.09-5.83-2.29-8.86-2.86-4.89-.92-9.85-1.54-14.81-2.01-8.3-.79-16.59-.73-24.84.68-6.05,1.03-11.72,3.02-17.05,6.05-5.52,3.14-10.1,7.33-13.49,12.66-3.52,5.54-5.44,11.65-5.8,18.26-.56,10.02,2.58,18.66,9.33,26.06,4.41,4.83,9.91,8.12,15.54,11.26,7.11,3.97,14.93,6.25,22.29,9.62,3.26,1.49,6.52,2.96,9.02,5.71,2.99,3.29,2.62,7.95-.96,10.57-2.16,1.59-4.73,2.24-7.28,2.52-7.79.86-15.54.44-23.23-1.22-7.98-1.72-15.61-4.33-22.69-8.43-1.38-.8-2.11-.41-2.36,1.2-.07.47-.06.96-.06,1.44,0,4.24,0,8.48,0,12.72Z"/>
  <path class="cls-1" d="M121.8,154.51c0-8.48.02-16.96-.03-25.43,0-1.17.29-1.62,1.52-1.63,6.71-.02,13.43-.26,20.14-.11,5.71.13,11.27,1.38,16.43,3.89,6.78,3.29,10.9,8.78,12.53,16.12,1.07,4.8.76,9.6-.23,14.39-1.16,5.59-4.43,9.7-8.94,13-3.31,2.42-7.05,3.77-10.96,4.84-9.24,2.53-18.64,2.45-28.07,1.89-2.4-.14-2.39-.2-2.39-2.6,0-8.12,0-16.24,0-24.35Z"/>
</svg>