<?xml version="1.0" encoding="UTF-8"?>
<svg id="Layer_1" data-name="Layer 1" xmlns="http://www.w3.org/2000/svg" viewBox="0 0 288 288">
  <defs>
    <style>
      .cls-1 {
        fill: red;
        stroke-width: 0px;
      }
    </style>
  </defs>
  <g>
    <polygon class="cls-1" points="87.66 184.99 122.17 174.05 122.43 210.25 77.64 271.9 42.87 246.64 87.66 184.99"/>
    <polygon class="cls-1" points="200.34 103.01 165.83 113.95 165.57 77.75 210.36 16.1 245.13 41.36 200.34 103.01"/>
  </g>
  <g>
    <polygon class="cls-1" points="74.32 144.05 108.67 155.48 87.6 184.92 15.14 208.46 1.86 167.59 74.32 144.05"/>
    <polygon class="cls-1" points="213.68 143.95 179.33 132.52 200.4 103.08 272.86 79.54 286.14 120.41 213.68 143.95"/>
  </g>
  <g>
    <polygon class="cls-1" points="87.6 103.08 108.67 132.52 74.32 143.95 1.86 120.41 15.14 79.54 87.6 103.08"/>
    <polygon class="cls-1" points="200.4 184.92 179.33 155.48 213.68 144.05 286.14 167.59 272.86 208.46 200.4 184.92"/>
  </g>
  <g>
    <polygon class="cls-1" points="122.43 77.75 122.17 113.95 87.66 103.01 42.87 41.36 77.64 16.1 122.43 77.75"/>
    <polygon class="cls-1" points="165.57 210.25 165.83 174.05 200.34 184.99 245.13 246.64 210.36 271.9 165.57 210.25"/>
  </g>
  <g>
    <polygon class="cls-1" points="165.49 77.72 144 106.85 122.51 77.72 122.51 1.52 165.49 1.52 165.49 77.72"/>
    <polygon class="cls-1" points="122.51 210.28 144 181.15 165.49 210.28 165.49 286.48 122.51 286.48 122.51 210.28"/>
  </g>
</svg>