<?xml version="1.0" encoding="UTF-8"?>
<svg id="Layer_1" data-name="Layer 1" xmlns="http://www.w3.org/2000/svg" viewBox="0 0 360.46 336.9">
  <defs>
    <style>
      .cls-1 {
        fill: red;
        stroke-width: 0px;
      }
    </style>
  </defs>
  <path class="cls-1" d="M180.23,210.22c-52.87,0-105.74,0-158.61,0-7.59,0-9.18-1.6-9.18-9.26,0-22,0-44,0-65.99,0-6.38,1.92-8.32,8.23-8.32,106.36,0,212.73,0,319.09,0,6.32,0,8.24,1.94,8.25,8.32.01,22.12,0,44.25,0,66.37,0,7.14-1.73,8.89-8.81,8.89-52.99,0-105.99,0-158.98,0ZM248.31,174.22c-.55-1.98-.89-3.14-1.19-4.32-2.21-8.7-4.35-17.43-6.64-26.11-1.14-4.34-4.29-6.37-7.95-5.4-3.42.91-5.23,4.29-4.22,8.4,3.77,15.26,7.66,30.48,11.44,45.74.79,3.17,2.23,5.63,5.74,6.03,3.71.42,5.65-1.85,7.14-4.89,3.29-6.73,6.69-13.4,10.08-20.09.4-.8.98-1.51,1.73-2.64,4.09,8.2,7.92,15.91,11.76,23.6,1.34,2.69,3.39,4.32,6.54,4.05,2.97-.26,4.84-2.02,5.55-4.8,4.03-15.84,8.03-31.68,11.91-47.55.93-3.78-1.18-7.08-4.54-7.87-3.41-.8-6.51,1.12-7.59,4.95-1.12,3.96-2.03,7.98-3.04,11.97-1.53,6.06-3.07,12.12-4.82,19.01-3.44-6.9-6.48-12.91-9.43-18.96-1.35-2.78-3.25-4.87-6.49-4.88-3.23-.01-5.15,2.03-6.51,4.83-2.95,6.05-6.01,12.04-9.47,18.93ZM164.33,174.17c-.54-1.88-.9-3.01-1.19-4.15-2.24-8.82-4.4-17.67-6.72-26.47-1.07-4.06-4.33-6.06-7.8-5.12-3.47.94-5.32,4.28-4.31,8.35,3.81,15.37,7.73,30.71,11.55,46.08.77,3.08,2.31,5.29,5.61,5.69,3.5.42,5.53-1.58,6.98-4.53,3.37-6.83,6.8-13.62,10.24-20.41.41-.81.99-1.54,1.74-2.68,3.97,7.95,7.74,15.4,11.41,22.9,1.5,3.08,3.55,5.21,7.23,4.72,3.51-.46,4.86-3.01,5.63-6.15,2.37-9.69,4.82-19.36,7.24-29.03,1.43-5.68,2.96-11.34,4.26-17.06.87-3.81-1.11-7.1-4.45-7.94-3.27-.82-6.4,1.01-7.58,4.49-.4,1.18-.62,2.41-.93,3.62-2.27,8.98-4.53,17.97-7.02,27.83-3.36-6.76-6.34-12.63-9.22-18.55-1.39-2.86-3.17-5.25-6.6-5.31-3.62-.07-5.47,2.4-6.92,5.39-2.87,5.91-5.86,11.77-9.15,18.33ZM96.24,170.54c4.23,8.45,8.05,16.01,11.81,23.62,1.47,2.97,3.57,4.87,7.05,4.4,3.3-.45,4.78-2.74,5.53-5.8,1.88-7.76,3.87-15.49,5.81-23.23,1.92-7.62,3.91-15.23,5.73-22.87.97-4.06-.96-7.44-4.43-8.28-3.4-.83-6.5,1.1-7.65,4.88-.62,2.03-1.06,4.11-1.58,6.16-2.02,8.01-4.05,16.02-6.29,24.9-2.82-5.66-5.13-10.48-7.61-15.22-1.91-3.66-2.89-8.54-8.26-8.62-5.42-.08-6.45,4.79-8.36,8.45-2.52,4.82-4.89,9.72-7.66,15.28-.55-1.95-.9-3.09-1.2-4.25-2.27-8.95-4.44-17.92-6.81-26.84-1.01-3.79-4.29-5.62-7.73-4.74-3.19.82-5.28,3.99-4.4,7.62,3.89,16,7.82,31.99,12.12,47.88.51,1.89,3.25,4.17,5.18,4.41,1.93.24,4.28-1.68,6.18-3.02.9-.64,1.21-2.13,1.77-3.25,3.47-6.89,6.93-13.78,10.8-21.49Z"/>
  <path class="cls-1" d="M186.78,13.42c6.21.66,11.71,2.87,16.93,5.83,14.7,8.34,24.85,21.03,33.21,35.33,2.87,4.9,5.29,10.05,8.27,15.78-6.98,1.43-13.11,3.1-19.35,3.86-11.87,1.44-23.81,2.35-35.72,3.49-2.25.21-3.76-.03-3.74-3.04.11-19.61.05-39.21.07-58.82,0-.72.19-1.44.32-2.42Z"/>
  <path class="cls-1" d="M173.81,13.28c.09,1.62.2,2.72.2,3.82.01,18.86-.08,37.72.09,56.57.03,3.4-1.04,4.18-4.27,4.08-17.65-.51-35.02-2.93-52.18-7-.47-.11-.91-.31-1.98-.68,6.66-15.1,15-28.8,26.85-40.16,8.7-8.34,18.61-14.53,31.31-16.64Z"/>
  <path class="cls-1" d="M186.43,323.56c0-1.67,0-2.9,0-4.12,0-18.73.08-37.47-.07-56.2-.03-3.31.88-4.24,4.21-4.15,17.03.43,33.78,2.85,50.39,6.48,1.08.24,2.13.63,3.88,1.15-7.1,15.92-15.89,30.32-28.77,41.95-8.36,7.54-17.75,13.11-29.62,14.89Z"/>
  <path class="cls-1" d="M116.14,266c10.03-1.71,20.02-3.72,30.11-5.03,8.15-1.06,16.41-1.24,24.62-1.85,2.1-.15,3.2.39,3.19,2.84-.08,19.98-.05,39.96-.07,59.94,0,.36-.16.71-.46,1.99-4.38-1.46-8.82-2.5-12.88-4.38-14.55-6.74-24.95-18.12-33.42-31.34-4.28-6.68-7.88-13.81-11.79-20.73l.7-1.45Z"/>
  <path class="cls-1" d="M326.1,114.22c-11.52,0-22.37,0-33.22,0-6.12,0-12.24-.15-18.35.07-2.59.09-3.36-1-3.94-3.24-2.53-9.89-5.18-19.76-7.9-29.6-.46-1.66-.7-2.75,1.28-3.52,10.78-4.2,21.52-8.49,32.72-12.92,12.48,14.03,22.35,30.31,29.41,49.21Z"/>
  <path class="cls-1" d="M326.86,222.64c-4.65,9.19-8.39,17.77-13.18,25.7-4.63,7.66-10.35,14.65-15.6,21.94-1,1.39-1.9,2.16-3.98,1.25-10.05-4.37-20.21-8.49-30.32-12.71-.55-.23-1.03-.64-1.51-.94,2.3-8.42,4.57-16.69,6.83-24.97.1-.36.24-.71.34-1.07.79-2.98.67-7.11,2.6-8.61,1.98-1.54,5.96-.57,9.07-.58,14.72-.03,29.45-.01,45.74-.01Z"/>
  <path class="cls-1" d="M34.52,113.82c6.82-18.42,16.74-34.76,29.26-48.83,11.25,4.46,22.03,8.69,32.74,13.1.73.3,1.43,2.16,1.2,3.06-2.57,10.14-5.36,20.22-8.01,30.34-.46,1.75-.95,2.79-3.13,2.78-16.86-.1-33.71-.06-50.57-.07-.35,0-.7-.17-1.5-.38Z"/>
  <path class="cls-1" d="M34.35,222.64c12.29,0,23.89,0,35.49,0,5.37,0,10.74.09,16.11-.04,2.22-.06,3.25.54,3.84,2.86,2.56,10.14,5.4,20.21,7.99,30.34.22.86-.35,2.62-1,2.88-10.82,4.43-21.71,8.69-33,13.16-12.49-14.04-22.36-30.31-29.42-49.2Z"/>
  <path class="cls-1" d="M102.51,222.83h71.26v23.17c-3.99.31-7.93.71-11.87.9-16.14.75-32,3.37-47.69,7.09-2.08.49-3.58.79-4.28-1.81-2.42-8.9-4.94-17.78-7.38-26.68-.19-.69-.02-1.47-.02-2.67Z"/>
  <path class="cls-1" d="M173.67,114.06h-71.35c.3-2,.39-3.81.86-5.52,2.19-7.93,4.49-15.84,6.72-23.76.51-1.83,1.32-2.71,3.48-2.16,19.44,4.95,39.24,7.26,59.25,8.01.24,0,.48.12,1.04.27v23.16Z"/>
  <path class="cls-1" d="M250.32,83.24c2.62,9.39,5.5,19.75,8.55,30.66h-72.19v-22.14c21.01-2.81,41.83-5.6,63.64-8.53Z"/>
  <path class="cls-1" d="M186.59,245.84v-22.9h71.58c-.36,2.23-.5,4.32-1.05,6.3-2.1,7.57-4.33,15.1-6.51,22.65-.49,1.68-1,2.93-3.34,2.34-19.44-4.89-39.24-7.27-59.25-8-.35-.01-.7-.19-1.43-.39Z"/>
  <path class="cls-1" d="M226.84,316.96c5.97-7.66,12.07-14.62,17.15-22.27,5.08-7.65,9.12-15.99,14.08-24.86,9.1,3.64,18.72,7.48,29.28,11.7-18.03,16.79-37.79,28.25-60.5,35.43Z"/>
  <path class="cls-1" d="M286.72,55.54c-9.83,3.95-19.45,7.82-29.34,11.8-7.39-17.95-17.45-33.29-30.74-46.62,10.29-.89,50.98,22.54,60.08,34.82Z"/>
  <path class="cls-1" d="M133.49,20.38c-12.94,13.56-23,28.87-30.32,46.92-9.89-3.94-19.52-7.78-30-11.96,17.94-16.89,37.74-28.24,60.33-34.96Z"/>
  <path class="cls-1" d="M73.11,281.54c10.56-4.22,20.1-8.04,30.01-12,7.37,17.97,17.38,33.43,30.49,46.97-22.62-6.66-42.37-18.15-60.49-34.97Z"/>
</svg>